<svg xmlns="http://www.w3.org/2000/svg" viewBox="0 0 16 17" width="16" height="17">
	<defs>
		<clipPath clipPathUnits="userSpaceOnUse" id="cp1">
			<path d="M-1128 -836L312 -836L312 164L-1128 164Z" />
		</clipPath>
	</defs>
	<style>
		tspan { white-space:pre }
		.shp0 { fill: #ffffff } 
	</style>
	<g id="01_RoklenFX_Registrace/ID_v2" clip-path="url(#cp1)">
		<g id="Blok">
			<g id="Form">
				<g id="Btn">
					<path id="Arrow_Right_2" class="shp0" d="M8.5 16.01C9 16.01 9.47 15.81 9.83 15.46L15.24 10.23C15.26 10.21 15.29 10.19 15.31 10.16C15.76 9.72 16 9.13 16 8.51C16 7.88 15.76 7.29 15.31 6.85L9.82 1.54C9.47 1.19 9 0.99 8.5 0.99C8 0.99 7.53 1.19 7.18 1.54C6.82 1.9 6.63 2.37 6.63 2.87C6.63 3.37 6.82 3.84 7.18 4.19L9.13 6.22C9.16 6.26 9.2 6.31 9.2 6.4C9.2 6.46 9.18 6.52 9.14 6.56C9.11 6.59 9.05 6.63 8.97 6.63L2.87 6.63C1.85 6.63 1.01 7.46 1 8.48C1 8.49 1 8.49 1 8.49C1 8.49 1 8.5 1 8.5L1 8.5C1 9.53 1.85 10.37 2.87 10.37L8.97 10.37C9.05 10.37 9.11 10.41 9.13 10.44C9.18 10.48 9.2 10.54 9.2 10.6C9.2 10.69 9.16 10.74 9.13 10.77L7.17 12.81C6.82 13.16 6.63 13.63 6.63 14.13C6.63 14.63 6.82 15.1 7.18 15.46C7.53 15.81 8 16.01 8.5 16.01ZM14.71 9.44C14.69 9.45 14.67 9.47 14.66 9.48L9.17 14.79C8.8 15.15 8.19 15.15 7.84 14.79C7.66 14.62 7.56 14.38 7.56 14.13C7.56 13.88 7.66 13.65 7.84 13.47L9.8 11.43C10.02 11.21 10.14 10.92 10.14 10.6C10.14 10.29 10.02 10 9.8 9.78C9.58 9.55 9.28 9.43 8.97 9.43L2.87 9.43C2.36 9.43 1.94 9.01 1.94 8.5C1.94 7.99 2.36 7.57 2.87 7.57L8.97 7.57C9.28 7.57 9.58 7.45 9.8 7.22C10.02 7 10.14 6.71 10.14 6.4C10.14 6.08 10.02 5.79 9.8 5.57L7.84 3.54C7.66 3.35 7.56 3.12 7.56 2.87C7.56 2.62 7.66 2.38 7.84 2.21C8.19 1.85 8.81 1.85 9.16 2.21L14.66 7.52C14.92 7.78 15.06 8.13 15.06 8.51C15.06 8.85 14.94 9.18 14.71 9.44Z" />
				</g>
			</g>
		</g>
	</g>
</svg>