<svg xmlns="http://www.w3.org/2000/svg" viewBox="0 0 16 17" width="16" height="17">
	<defs>
		<clipPath clipPathUnits="userSpaceOnUse" id="cp1">
			<path d="M-583 -1037L857 -1037L857 224L-583 224Z" />
		</clipPath>
	</defs>
	<style>
		tspan { white-space:pre }
		.shp0 { fill: #ffffff } 
	</style>
	<g id="RoklenFx_Lightboxy" clip-path="url(#cp1)">
		<g id="Lightbox_vlastnik">
			<g id="Form">
				<g id="Paticka">
					<g id="Btn">
						<path id="Arrow_Right_2" class="shp0" d="M8.5 16.01C8 16.01 7.53 15.81 7.17 15.46L1.76 10.23C1.74 10.21 1.71 10.19 1.69 10.16C1.24 9.72 1 9.13 1 8.51C1 7.88 1.24 7.29 1.69 6.85L7.18 1.54C7.53 1.19 8 0.99 8.5 0.99C9 0.99 9.47 1.19 9.82 1.54C10.18 1.9 10.37 2.37 10.37 2.87C10.37 3.37 10.18 3.84 9.82 4.19L7.87 6.22C7.84 6.26 7.8 6.31 7.8 6.4C7.8 6.46 7.82 6.52 7.86 6.56C7.89 6.59 7.95 6.63 8.03 6.63L14.13 6.63C15.15 6.63 15.99 7.46 16 8.48C16 8.48 16 8.49 16 8.49C16 8.49 16 8.5 16 8.5L16 8.5C16 9.53 15.15 10.37 14.13 10.37L8.03 10.37C7.95 10.37 7.89 10.41 7.87 10.44C7.82 10.48 7.8 10.54 7.8 10.6C7.8 10.69 7.84 10.74 7.87 10.77L9.83 12.81C10.18 13.16 10.37 13.63 10.37 14.13C10.37 14.63 10.18 15.1 9.82 15.46C9.47 15.81 9 16.01 8.5 16.01ZM2.29 9.44C2.31 9.45 2.33 9.47 2.34 9.48L7.83 14.79C8.2 15.15 8.81 15.15 9.16 14.79C9.34 14.62 9.44 14.38 9.44 14.13C9.44 13.88 9.34 13.65 9.16 13.47L7.2 11.42C6.98 11.21 6.86 10.92 6.86 10.6C6.86 10.29 6.98 10 7.2 9.78C7.42 9.55 7.72 9.43 8.03 9.43L14.13 9.43C14.64 9.43 15.06 9.01 15.06 8.5C15.06 7.99 14.64 7.57 14.13 7.57L8.03 7.57C7.72 7.57 7.42 7.45 7.2 7.22C6.98 7 6.86 6.71 6.86 6.4C6.86 6.08 6.98 5.79 7.2 5.57L9.16 3.54C9.34 3.35 9.44 3.12 9.44 2.87C9.44 2.62 9.34 2.38 9.16 2.21C8.81 1.85 8.19 1.85 7.84 2.21L2.34 7.52C2.08 7.78 1.94 8.13 1.94 8.51C1.94 8.85 2.06 9.18 2.29 9.44Z" />
					</g>
				</g>
			</g>
		</g>
	</g>
</svg>