<svg xmlns="http://www.w3.org/2000/svg" width="350" height="350" viewBox="0 0 350 350">
  <defs>
    <style>
      .cls-1 {
        fill: none;
        stroke: #fff;
        stroke-width: 1px;
      }

      .cls-2 {
        fill: #fff;
        fill-rule: evenodd;
      }
    </style>
  </defs>
  <circle id="Bck" class="cls-1" cx="175" cy="175" r="175"/>
  <path id="Check" class="cls-2" d="M154.3,252.073a23.753,23.753,0,0,1-16.786-6.854L90.747,199.144a23.184,23.184,0,0,1,0-33.084c8.966-8.84,24.6-8.843,33.577,0L154.3,195.592l78.185-77.038c8.972-8.835,24.611-8.835,33.577,0a23.167,23.167,0,0,1,0,33.087l-94.977,93.578A23.75,23.75,0,0,1,154.3,252.073ZM107.539,170.9a11.877,11.877,0,0,0-8.4,3.425,11.594,11.594,0,0,0,0,16.544L145.9,236.95a12.282,12.282,0,0,0,16.786,0l94.976-93.578a11.585,11.585,0,0,0,0-16.546,12.288,12.288,0,0,0-16.791,0L158.49,208a5.991,5.991,0,0,1-8.39,0l-34.165-33.669A11.875,11.875,0,0,0,107.539,170.9Z"/>
</svg>
