<svg xmlns="http://www.w3.org/2000/svg" viewBox="0 0 16 16" width="16" height="16">
	<defs>
		<clipPath clipPathUnits="userSpaceOnUse" id="cp1">
			<path d="M-843 -898L597 -898L597 463L-843 463Z" />
		</clipPath>
	</defs>
	<style>
		tspan { white-space:pre }
		.shp0 { fill: #ffffff } 
	</style>
	<g id="01_RoklenFX_Registrace/Doklady" clip-path="url(#cp1)">
		<g id="Blok">
			<g id="Doklady">
				<g id="2">
					<g id="Hover">
						<path id="Plus_ico" class="shp0" d="M2.28 15.63C1.77 15.63 1.29 15.43 0.93 15.07C0.18 14.32 0.18 13.11 0.93 12.37L5.3 8L0.93 3.63C0.18 2.89 0.18 1.68 0.93 0.93C1.29 0.57 1.77 0.37 2.28 0.37C2.79 0.37 3.27 0.57 3.63 0.93L8 5.3L12.38 0.93C12.74 0.57 13.22 0.38 13.73 0.38C14.24 0.38 14.72 0.57 15.08 0.93C15.44 1.29 15.64 1.77 15.64 2.28C15.64 2.79 15.44 3.27 15.08 3.63L10.7 8L15.08 12.37C15.82 13.11 15.82 14.32 15.08 15.07C14.72 15.43 14.24 15.62 13.73 15.62L13.73 15.62C13.22 15.62 12.74 15.43 12.38 15.07L8 10.7L3.63 15.07C3.27 15.43 2.79 15.63 2.28 15.63ZM2.28 1.33C2.02 1.33 1.78 1.43 1.6 1.61C1.23 1.98 1.23 2.58 1.6 2.96L6.32 7.66C6.41 7.75 6.46 7.87 6.46 8C6.46 8.13 6.41 8.25 6.32 8.34L1.6 13.04C1.23 13.42 1.23 14.02 1.6 14.39C1.96 14.75 2.59 14.75 2.95 14.39L7.67 9.69C7.85 9.5 8.15 9.5 8.34 9.69L13.05 14.39C13.41 14.75 14.04 14.75 14.4 14.39C14.77 14.02 14.77 13.42 14.4 13.04L9.69 8.34C9.5 8.15 9.5 7.85 9.69 7.66L14.4 2.96C14.58 2.78 14.68 2.54 14.68 2.28C14.68 2.03 14.58 1.79 14.4 1.61C14.04 1.25 13.41 1.25 13.05 1.61L8.34 6.32C8.15 6.5 7.85 6.5 7.67 6.32L2.95 1.61C2.77 1.43 2.53 1.33 2.28 1.33Z" />
					</g>
				</g>
			</g>
		</g>
	</g>
</svg>