<?xml version="1.0" encoding="UTF-8"?>
<svg width="84px" height="58px" viewBox="0 0 84 58" version="1.1" xmlns="http://www.w3.org/2000/svg" xmlns:xlink="http://www.w3.org/1999/xlink">
    <!-- Generator: Sketch 55.2 (78181) - https://sketchapp.com -->
    <title>Shape</title>
    <desc>Created with Sketch.</desc>
    <g id="Page-1" stroke="none" stroke-width="1" fill="none" fill-rule="evenodd">
        <g id="noun_envelope_737009" transform="translate(0.000000, -1.000000)" fill="#000000" fill-rule="nonzero">
            <g id="Group" transform="translate(0.000000, 0.637820)">
                <path d="M7.0000015,0.36217 C3.139302,0.36217 1.5e-06,3.50142 1.5e-06,7.36217 L1.5e-06,51.3622 C1.5e-06,55.2229 3.139302,58.3622 7.0000015,58.3622 L77.0000015,58.3622 C80.860699,58.3622 84.0000015,55.2229 84.0000015,51.3622 L84.0000015,7.36217 C84.0000015,3.50142 80.860698,0.36217 77.0000015,0.36217 L7.0000015,0.36217 Z M7.000002,2.36217 L77.000001,2.36217 C78.029901,2.36217 78.990902,2.65312 79.781199,3.17467 L45.593802,36.8309 C43.586202,38.8079 40.348402,38.8089 38.343802,36.8309 L4.218802,3.17467 C5.009102,2.65312 5.970102,2.36217 7.000002,2.36217 Z M81.156199,4.54967 C81.692199,5.34692 81.999999,6.31692 81.999999,7.36217 L81.999999,51.3622 C81.999999,52.4074 81.692199,53.3774 81.156199,54.1747 L54.875002,30.4559 L81.156198,4.54967 L81.156199,4.54967 Z M2.843802,4.58087 L29.093802,30.4871 L2.843802,54.1746 C2.307802,53.3774 2.000002,52.4074 2.000002,51.3621 L2.000002,7.36212 C2.000002,6.32673 2.317102,5.37371 2.843802,4.58087 Z M53.468802,31.8621 L79.750002,55.5496 C78.964202,56.062 78.020002,56.3621 77.000002,56.3621 L7.000002,56.3621 C5.980002,56.3621 5.035802,56.062 4.250002,55.5496 L30.500002,31.8934 L36.937502,38.2371 C39.709902,40.9725 44.225702,40.9692 47.000002,38.2371 L53.468802,31.8621 L53.468802,31.8621 Z" id="Shape"></path>
            </g>
        </g>
    </g>
</svg>