<?xml version="1.0" encoding="UTF-8"?>
<svg width="30px" height="30px" viewBox="0 0 441 441" version="1.1" xmlns="http://www.w3.org/2000/svg" xmlns:xlink="http://www.w3.org/1999/xlink">
    <!-- Generator: Sketch 55.2 (78181) - https://sketchapp.com -->
    <title>e2aD2K4ER8</title>
    <desc>Created with Sketch.</desc>
    <g id="Page-1" stroke="none" stroke-width="1" fill="none" fill-rule="evenodd">
        <g id="noun_exclamation_745060" fill="#dc4e41" fill-rule="nonzero">
            <g id="Group">
                <g id="e2aD2K4ER8" transform="translate(0.600000, 0.280000)">
                    <path d="M218.45,272.09 C207.7,272.09 198.99,280.8 198.99,291.54 C198.99,302.29 207.7,311 218.45,311 C229.19,311 237.9,302.29 237.9,291.54 C237.9,280.8 229.19,272.09 218.45,272.09 Z"></path>
                    <path d="M232.78,239.32 C232.27,247.51 225.62,253.66 217.94,253.14 C210.26,252.63 204.11,246.49 204.11,239.32 C203.7,229.13 200.43,147.62 200.02,137.43 C199.5,127.19 207.7,118.49 217.94,118.49 C228.18,118.49 236.88,126.17 236.88,136.41 C236.88,136.41 236.88,136.92 236.88,137.43 C236.06,157.81 233.19,229.13 232.78,239.32 Z" id="b2cfOqvoVe" stroke-opacity="0" stroke="#000000" stroke-width="1" fill-opacity="0"></path>
                    <path d="M232.78,239.32 C232.27,247.51 225.62,253.66 217.94,253.14 C210.26,252.63 204.11,246.49 204.11,239.32 C203.7,229.13 200.43,147.62 200.02,137.43 C199.5,127.19 207.7,118.49 217.94,118.49 C228.18,118.49 236.88,126.17 236.88,136.41 C236.88,136.41 236.88,136.92 236.88,137.43 C236.06,157.81 233.19,229.13 232.78,239.32 Z" id="b2cfOqvoVe"></path>
                    <path d="M238.09,0.73 L246.95,1.63 L255.72,2.88 L264.36,4.47 L272.89,6.4 L281.29,8.66 L289.55,11.23 L297.67,14.12 L305.65,17.31 L313.46,20.81 L321.12,24.59 L328.6,28.66 L335.9,33.01 L343.02,37.62 L349.95,42.51 L356.68,47.64 L363.21,53.03 L369.52,58.65 L375.6,64.52 L381.47,70.6 L387.09,76.91 L392.48,83.44 L397.62,90.17 L402.5,97.1 L407.11,104.22 L411.46,111.52 L415.53,119 L419.31,126.66 L422.81,134.47 L426,142.45 L428.89,150.57 L431.46,158.83 L433.72,167.23 L435.65,175.76 L437.24,184.4 L438.49,193.17 L439.39,202.03 L439.94,211 L440.12,220.06 L439.94,229.12 L439.39,238.08 L438.49,246.95 L437.24,255.71 L435.65,264.36 L433.72,272.88 L431.46,281.28 L428.89,289.55 L426,297.67 L422.81,305.64 L419.31,313.46 L415.53,321.11 L411.46,328.6 L407.11,335.9 L402.5,343.02 L397.62,349.95 L392.48,356.68 L387.09,363.2 L381.47,369.51 L375.6,375.6 L369.52,381.46 L363.21,387.09 L356.68,392.47 L349.95,397.61 L343.02,402.49 L335.9,407.11 L328.6,411.45 L321.12,415.52 L313.46,419.31 L305.65,422.8 L297.67,426 L289.55,428.88 L281.29,431.46 L272.89,433.71 L264.36,435.64 L255.72,437.24 L246.95,438.49 L238.09,439.39 L229.12,439.94 L220.06,440.12 L211,439.94 L202.04,439.39 L193.17,438.49 L184.41,437.24 L175.76,435.64 L167.24,433.71 L158.84,431.46 L150.57,428.88 L142.45,426 L134.48,422.8 L126.66,419.31 L119.01,415.52 L111.52,411.45 L104.22,407.11 L97.1,402.49 L90.17,397.61 L83.44,392.47 L76.92,387.09 L70.61,381.46 L64.52,375.6 L58.66,369.51 L53.03,363.2 L47.65,356.68 L42.51,349.95 L37.63,343.02 L33.01,335.9 L28.67,328.6 L24.6,321.11 L20.81,313.46 L17.32,305.64 L14.12,297.67 L11.24,289.55 L8.66,281.28 L6.41,272.88 L4.48,264.36 L2.88,255.71 L1.63,246.95 L0.73,238.08 L0.18,229.12 L-2.84217094e-14,220.06 L0.18,211 L0.73,202.03 L1.63,193.17 L2.88,184.4 L4.48,175.76 L6.41,167.23 L8.66,158.83 L11.24,150.57 L14.12,142.45 L17.32,134.47 L20.81,126.66 L24.6,119 L28.67,111.52 L33.01,104.22 L37.63,97.1 L42.51,90.17 L47.65,83.44 L53.03,76.91 L58.66,70.6 L64.52,64.52 L70.61,58.65 L76.92,53.03 L83.44,47.64 L90.17,42.51 L97.1,37.62 L104.22,33.01 L111.52,28.66 L119.01,24.59 L126.66,20.81 L134.48,17.31 L142.45,14.12 L150.57,11.23 L158.84,8.66 L167.24,6.4 L175.76,4.47 L184.41,2.88 L193.17,1.63 L202.04,0.73 L211,0.18 L220.06,2.84217094e-14 L229.12,0.18 L238.09,0.73 Z M204.4,29.97 L196.69,30.75 L189.08,31.83 L181.58,33.2 L174.17,34.87 L166.88,36.82 L159.71,39.04 L152.67,41.54 L145.75,44.3 L138.97,47.32 L132.34,50.59 L125.85,54.11 L119.52,57.87 L113.35,61.86 L107.35,66.09 L101.52,70.53 L95.87,75.19 L90.41,80.06 L85.14,85.13 L80.06,90.4 L75.19,95.87 L70.53,101.52 L66.09,107.35 L61.87,113.35 L57.87,119.52 L54.12,125.85 L50.6,132.33 L47.32,138.97 L44.3,145.75 L41.54,152.66 L39.05,159.71 L36.82,166.88 L34.87,174.17 L33.21,181.57 L31.83,189.08 L30.75,196.69 L29.97,204.39 L29.5,212.18 L29.34,220.06 L29.5,227.93 L29.97,235.72 L30.75,243.43 L31.83,251.04 L33.21,258.54 L34.87,265.95 L36.82,273.24 L39.05,280.41 L41.54,287.45 L44.3,294.37 L47.32,301.15 L50.6,307.78 L54.12,314.27 L57.87,320.6 L61.87,326.77 L66.09,332.77 L70.53,338.6 L75.19,344.25 L80.06,349.71 L85.14,354.98 L90.41,360.06 L95.87,364.93 L101.52,369.59 L107.35,374.03 L113.35,378.25 L119.52,382.25 L125.85,386 L132.34,389.52 L138.97,392.8 L145.75,395.82 L152.67,398.58 L159.71,401.07 L166.88,403.3 L174.17,405.25 L181.58,406.91 L189.08,408.29 L196.69,409.37 L204.4,410.15 L212.19,410.62 L220.06,410.78 L227.94,410.62 L235.73,410.15 L243.43,409.37 L251.04,408.29 L258.55,406.91 L265.95,405.25 L273.24,403.3 L280.41,401.07 L287.46,398.58 L294.37,395.82 L301.15,392.8 L307.79,389.52 L314.27,386 L320.6,382.25 L326.77,378.25 L332.77,374.03 L338.6,369.59 L344.25,364.93 L349.72,360.06 L354.99,354.98 L360.06,349.71 L364.93,344.25 L369.59,338.6 L374.03,332.77 L378.26,326.77 L382.25,320.6 L386.01,314.27 L389.53,307.78 L392.8,301.15 L395.82,294.37 L398.58,287.45 L401.08,280.41 L403.3,273.24 L405.25,265.95 L406.92,258.54 L408.29,251.04 L409.37,243.43 L410.15,235.72 L410.62,227.93 L410.78,220.06 L410.62,212.18 L410.15,204.39 L409.37,196.69 L408.29,189.08 L406.92,181.57 L405.25,174.17 L403.3,166.88 L401.08,159.71 L398.58,152.66 L395.82,145.75 L392.8,138.97 L389.53,132.33 L386.01,125.85 L382.25,119.52 L378.26,113.35 L374.03,107.35 L369.59,101.52 L364.93,95.87 L360.06,90.4 L354.99,85.13 L349.72,80.06 L344.25,75.19 L338.6,70.53 L332.77,66.09 L326.77,61.86 L320.6,57.87 L314.27,54.11 L307.79,50.59 L301.15,47.32 L294.37,44.3 L287.46,41.54 L280.41,39.04 L273.24,36.82 L265.95,34.87 L258.55,33.2 L251.04,31.83 L243.43,30.75 L235.73,29.97 L227.94,29.5 L220.06,29.34 L212.19,29.5 L204.4,29.97 Z" id="almcu0KUZ"></path>
                </g>
            </g>
        </g>
    </g>
</svg>