<?xml version="1.0" encoding="UTF-8"?>
<svg width="90px" height="90px" viewBox="0 0 90 90" version="1.1" xmlns="http://www.w3.org/2000/svg" xmlns:xlink="http://www.w3.org/1999/xlink">
    <!-- Generator: Sketch 55.2 (78181) - https://sketchapp.com -->
    <title>Shape</title>
    <desc>Created with Sketch.</desc>
    <g id="Page-1" stroke="none" stroke-width="1" fill="none" fill-rule="evenodd">
        <g id="noun_Info_1580327" transform="translate(0.000000, -1.000000)" fill="#49647f" fill-rule="nonzero">
            <g id="Group" transform="translate(0.000000, 0.637820)">
                <path d="M45,0.36218 C20.182719,0.36218 0,20.54494 0,45.36218 C0,70.17948 20.182719,90.36218 45,90.36218 C69.817282,90.36218 90,70.17948 90,45.36218 C90,20.54494 69.817282,0.36218 45,0.36218 Z M45,6.36218 C66.574638,6.36218 84,23.78758 84,45.36218 C84,66.93688 66.574638,84.36218 45,84.36218 C23.425363,84.36218 6,66.93688 6,45.36218 C6,23.78758 23.425363,6.36218 45,6.36218 Z M44,24.36218 C41.790861,24.36218 40,26.153043 40,28.36218 C40,30.571317 41.790861,32.36218 44,32.36218 C46.209139,32.36218 48,30.571317 48,28.36218 C48,26.153043 46.209139,24.36218 44,24.36218 Z M39.6875,34.36218 C38.6155694,34.417823 37.654773,35.0411715 37.1671067,35.9973686 C36.6794404,36.9535657 36.7390102,38.0973072 37.3233723,38.9976695 C37.9077344,39.8980318 38.9280888,40.4181954 40,40.36218 L42,40.36218 L42,60.36218 L40,60.36218 C39.8959041,60.3567515 39.7915959,60.3567515 39.6875,60.36218 C38.6155694,60.417823 37.654773,61.0411715 37.1671067,61.9973686 C36.6794404,62.9535657 36.7390102,64.0973072 37.3233723,64.9976695 C37.9077344,65.8980318 38.9280888,66.4181954 40,66.36218 L50,66.36218 C51.0819077,66.3774809 52.0882441,65.8090541 52.6336632,64.8745615 C53.1790822,63.9400688 53.1790822,62.7842912 52.6336632,61.8497985 C52.0882441,60.9153059 51.0819077,60.3468791 50,60.36218 L48,60.36218 L48,37.36218 C47.9998343,35.7053944 46.6567856,34.3623457 45,34.36218 L40,34.36218 C39.8959041,34.3567515 39.7915959,34.3567515 39.6875,34.36218 Z" id="Shape"></path>
            </g>
        </g>
    </g>
</svg>