<?xml version="1.0" encoding="UTF-8"?>
<svg width="90px" height="90px" viewBox="0 0 90 90" version="1.1" xmlns="http://www.w3.org/2000/svg" xmlns:xlink="http://www.w3.org/1999/xlink">
    <!-- Generator: Sketch 55.2 (78181) - https://sketchapp.com -->
    <title>Shape</title>
    <desc>Created with Sketch.</desc>
    <g id="Page-1" stroke="none" stroke-width="1" fill="none" fill-rule="evenodd">
        <g id="noun_Login_1161847">
            <g id="Group">
                <g id="Shape">
                    <path d="M77.417,87.98 L77.417,61.656 C76.982,54.875 69.156,53.515 68.823,53.461 L56.455,51.335 L45.343,55.36 C45.122,55.441 44.877,55.441 44.656,55.36 L33.545,51.334 L21.182,53.458 C20.847,53.513 13.017,54.885 12.583,61.719 L12.585,87.98 L25.219,87.98 L25.219,71.208 C25.219,70.651 25.672,70.198 26.228,70.198 C26.785,70.198 27.238,70.651 27.238,71.208 L27.238,87.98 L62.762,87.98 L62.762,71.208 C62.762,70.651 63.215,70.198 63.772,70.198 C64.329,70.198 64.782,70.651 64.782,71.208 L64.782,87.98 L77.417,87.98 Z M46.01,86.026 C46.01,86.583 45.557,87.035 45,87.035 C44.443,87.035 43.991,86.582 43.991,86.026 L43.991,81.764 C43.991,81.207 44.444,80.754 45,80.754 C45.557,80.754 46.01,81.207 46.01,81.764 L46.01,86.026 Z M46.01,78.355 C46.01,78.912 45.557,79.364 45,79.364 C44.443,79.364 43.991,78.911 43.991,78.355 L43.991,74.093 C43.991,73.536 44.444,73.083 45,73.083 C45.557,73.083 46.01,73.536 46.01,74.093 L46.01,78.355 Z M59.759,68.098 C59.759,71.388 57.082,74.065 53.791,74.065 C50.5,74.065 47.823,71.388 47.823,68.098 L47.823,62.59 C47.823,62.033 48.276,61.58 48.833,61.58 L58.748,61.58 C59.305,61.58 59.758,62.033 59.758,62.59 L59.758,68.098 L59.759,68.098 Z"></path>
                    <path d="M53.791,72.046 C55.968,72.046 57.739,70.275 57.739,68.098 L57.739,63.6 L49.844,63.6 L49.844,68.097 C49.844,70.275 51.615,72.046 53.791,72.046 Z" id="Path"></path>
                    <path d="M45,18.208 C39.244,18.208 34.56,22.892 34.56,28.649 L34.56,35.88 C34.56,41.636 39.243,46.32 45,46.32 C50.757,46.32 55.44,41.636 55.44,35.88 L55.44,28.649 C55.44,22.892 50.757,18.208 45,18.208 Z" id="Path"></path>
                    <path d="M87.98,79.422 L87.98,10.578 C87.98,5.859 84.141,2.02 79.422,2.02 L10.578,2.02 C5.859,2.02 2.02,5.859 2.02,10.578 L2.02,79.422 C2.02,84.137 5.852,87.972 10.565,87.98 L10.565,61.656 C11.101,53.188 20.75,51.483 20.847,51.467 L33.465,49.299 C33.632,49.267 33.806,49.283 33.978,49.344 L45,53.337 L56.019,49.345 C56.188,49.284 56.367,49.268 56.537,49.3 L69.159,51.468 C69.254,51.484 78.898,53.17 79.435,61.591 L79.437,87.979 C84.149,87.972 87.98,84.137 87.98,79.422 Z M57.459,35.881 C57.459,42.751 51.87,48.341 44.999,48.341 C38.128,48.341 32.539,42.752 32.539,35.881 L32.539,28.65 C32.539,21.779 38.128,16.189 44.999,16.189 C51.87,16.189 57.459,21.779 57.459,28.65 L57.459,35.881 Z"></path>
                    <path d="M79.422,0 L10.578,0 C4.745,0 0,4.745 0,10.578 L0,79.422 C0,85.255 4.745,90 10.578,90 L11.575,90 L78.427,90 L79.423,90 C85.255,90 90,85.255 90,79.422 L90,10.578 C90,4.745 85.255,0 79.422,0 Z M63.772,70.198 C63.215,70.198 62.762,70.651 62.762,71.208 L62.762,87.98 L27.238,87.98 L27.238,71.208 C27.238,70.651 26.785,70.198 26.228,70.198 C25.671,70.198 25.219,70.651 25.219,71.208 L25.219,87.98 L12.584,87.98 L12.582,61.72 C13.016,54.886 20.846,53.514 21.181,53.459 L33.544,51.335 L44.655,55.361 C44.877,55.442 45.122,55.442 45.342,55.361 L56.454,51.335 L68.822,53.461 C69.155,53.515 76.981,54.875 77.416,61.656 L77.416,87.98 L64.782,87.98 L64.782,71.208 C64.782,70.651 64.329,70.198 63.772,70.198 Z M79.434,61.592 C78.897,53.171 69.254,51.485 69.158,51.469 L56.536,49.3 C56.367,49.268 56.188,49.284 56.018,49.345 L45,53.337 L33.979,49.344 C33.806,49.283 33.632,49.267 33.466,49.299 L20.848,51.467 C20.751,51.483 11.102,53.188 10.566,61.656 L10.566,87.98 C5.853,87.973 2.021,84.137 2.021,79.422 L2.021,10.578 C2.021,5.859 5.86,2.02 10.579,2.02 L79.424,2.02 C84.143,2.02 87.982,5.859 87.982,10.578 L87.982,79.422 C87.982,84.137 84.15,87.972 79.438,87.98 L79.434,61.592 Z" fill="#b94c8f" fill-rule="nonzero"></path>
                    <path d="M45,16.188 C38.13,16.188 32.54,21.778 32.54,28.649 L32.54,35.88 C32.54,42.75 38.129,48.34 45,48.34 C51.871,48.34 57.46,42.751 57.46,35.88 L57.46,28.649 C57.459,21.778 51.87,16.188 45,16.188 Z M55.44,28.649 L55.44,35.88 C55.44,41.636 50.756,46.32 45,46.32 C39.244,46.32 34.56,41.636 34.56,35.88 L34.56,28.649 C34.56,22.892 39.243,18.208 45,18.208 C50.757,18.208 55.44,22.892 55.44,28.649 Z" fill="#b94c8f" fill-rule="nonzero"></path>
                    <path d="M58.749,61.581 L48.834,61.581 C48.277,61.581 47.824,62.034 47.824,62.591 L47.824,68.098 C47.824,71.388 50.501,74.065 53.792,74.065 C57.083,74.065 59.76,71.388 59.76,68.098 L59.76,62.59 C59.759,62.034 59.306,61.581 58.749,61.581 Z M57.739,63.6 L57.739,68.097 C57.739,70.274 55.968,72.045 53.791,72.045 C51.614,72.045 49.843,70.274 49.843,68.097 L49.843,63.6 L57.739,63.6 Z" fill="#b94c8f" fill-rule="nonzero"></path>
                    <path d="M45,73.084 C44.443,73.084 43.991,73.537 43.991,74.094 L43.991,78.356 C43.991,78.913 44.444,79.365 45,79.365 C45.557,79.365 46.01,78.912 46.01,78.356 L46.01,74.094 C46.01,73.537 45.556,73.084 45,73.084 Z" id="Path" fill="#b94c8f" fill-rule="nonzero"></path>
                    <path d="M45,80.755 C44.443,80.755 43.991,81.208 43.991,81.765 L43.991,86.027 C43.991,86.584 44.444,87.036 45,87.036 C45.557,87.036 46.01,86.583 46.01,86.027 L46.01,81.765 C46.01,81.208 45.556,80.755 45,80.755 Z" id="Path" fill="#b94c8f" fill-rule="nonzero"></path>
                </g>
            </g>
        </g>
    </g>
</svg>