<svg xmlns="http://www.w3.org/2000/svg" viewBox="0 0 216.28 37.53" width="102" height="20"><defs><style>.cls-1{fill:#fff;}</style></defs><title>Datový zdroj 3</title><g id="Vrstva_2" data-name="Vrstva 2"><g id="Vrstva_1-2" data-name="Vrstva 1"><path class="cls-1" d="M23.82,22.72a10.61,10.61,0,0,0,3-2.21,10.2,10.2,0,0,0,2.07-3.35,12.3,12.3,0,0,0,.78-4.56,14.48,14.48,0,0,0-.86-5,11.54,11.54,0,0,0-2.46-4A11.22,11.22,0,0,0,22.41.94,13.44,13.44,0,0,0,17.25,0H0V36.87H7.85v-30h8.23A5.55,5.55,0,0,1,20,8.4a5.52,5.52,0,0,1,1.57,4.2,5.37,5.37,0,0,1-1.52,4.09,6,6,0,0,1-4,1.55l-4.8.28-1,2.15,10.61,16.2h9l-9.4-13a13.08,13.08,0,0,0,3.37-1.16Zm31-9.18a12.46,12.46,0,0,0-4.39-3,16.06,16.06,0,0,0-6.06-1.07,15.78,15.78,0,0,0-6,1.07,12.18,12.18,0,0,0-7,7.41,16.28,16.28,0,0,0-.91,5.5A16.24,16.24,0,0,0,31.31,29,12.89,12.89,0,0,0,34,33.47a12.34,12.34,0,0,0,4.37,3,15.59,15.59,0,0,0,6,1.08,15.87,15.87,0,0,0,6.06-1.08,12.24,12.24,0,0,0,4.39-3A12.89,12.89,0,0,0,57.51,29a16.24,16.24,0,0,0,.91-5.53,16.28,16.28,0,0,0-.91-5.5,12.53,12.53,0,0,0-2.68-4.45Zm-4,13A7.22,7.22,0,0,1,49.5,29a6.16,6.16,0,0,1-2.16,1.66,7,7,0,0,1-3,.6,6.82,6.82,0,0,1-2.93-.6A6.19,6.19,0,0,1,39.33,29,7.07,7.07,0,0,1,38,26.56a10,10,0,0,1-.45-3.07,9.83,9.83,0,0,1,.45-3A7.07,7.07,0,0,1,39.33,18a6.19,6.19,0,0,1,2.12-1.66,6.82,6.82,0,0,1,2.93-.61,7,7,0,0,1,3,.61A6.16,6.16,0,0,1,49.5,18a7.22,7.22,0,0,1,1.29,2.46,9.83,9.83,0,0,1,.45,3,10,10,0,0,1-.45,3.07ZM86.5,10.17H78.38L71,20.12H68.48V0l-7,1.27v35.6h7V25.48h2.8l7.26,11.39h8.24L77,22.5,86.5,10.17Zm2.76,26.7h7V0l-7,1.27v35.6Zm33.61-23.74a11.26,11.26,0,0,0-4-2.66,15.21,15.21,0,0,0-5.66-1,14.75,14.75,0,0,0-5.61,1,12.3,12.3,0,0,0-4.29,2.85,12.46,12.46,0,0,0-2.73,4.39,16,16,0,0,0-1,5.72,16.46,16.46,0,0,0,1,6,12.45,12.45,0,0,0,2.85,4.39,11.78,11.78,0,0,0,4.34,2.71,15.77,15.77,0,0,0,5.44.91,19.7,19.7,0,0,0,6.27-1,17.69,17.69,0,0,0,5.5-3L121.93,29a14.35,14.35,0,0,1-3.68,2.1,11.74,11.74,0,0,1-4.39.83,7.34,7.34,0,0,1-2.74-.5A6.9,6.9,0,0,1,109,30.12a6.35,6.35,0,0,1-1.47-2,6.65,6.65,0,0,1-.66-2.4h19c.07-.48.14-1,.19-1.63s.08-1.23.08-1.86a15.6,15.6,0,0,0-.8-5.11,10.77,10.77,0,0,0-2.4-4ZM106.78,21a6.82,6.82,0,0,1,.47-2,6.44,6.44,0,0,1,1.19-1.91,6.15,6.15,0,0,1,1.94-1.41,6.48,6.48,0,0,1,2.82-.55,6.85,6.85,0,0,1,2.9.55,5.37,5.37,0,0,1,1.9,1.41,5.51,5.51,0,0,1,1,1.91,6.51,6.51,0,0,1,.34,2Zm47.48-4.69a10.68,10.68,0,0,0-1.66-3.57,7.58,7.58,0,0,0-2.84-2.38,9.27,9.27,0,0,0-4.12-.85,10.94,10.94,0,0,0-5.25,1.24,14.16,14.16,0,0,0-3.87,3l-1.82-3.54h-4.92v26.7h7v-18a8.51,8.51,0,0,1,2.43-2.18,6.79,6.79,0,0,1,3.65-1,4.45,4.45,0,0,1,3.62,1.58c.86,1.05,1.3,2.75,1.3,5.11V36.87h7V20.73a16.77,16.77,0,0,0-.56-4.42Z"/><path class="cls-1" d="M164.77,37.22h2.68V20.84h20.47V18.36H167.45V3.53h22.79V1.05H164.77V37.22Zm26.71,0h3.05l9.3-11.73,9.3,11.73h3.15l-10.8-13.48,10.39-12.87h-3.05L203.93,22l-8.88-11.16h-3.16l10.39,12.92-10.8,13.43Z"/></g></g></svg>