<svg xmlns="http://www.w3.org/2000/svg" viewBox="0 0 29.85 36.87"><defs><style>.cls-1{fill:#fff;}</style></defs><title>Datový zdroj 4</title><g id="Vrstva_2" data-name="Vrstva 2"><g id="Vrstva_1-2" data-name="Vrstva 1"><path class="cls-1" d="M23.82,22.72a10.61,10.61,0,0,0,3-2.21,10.2,10.2,0,0,0,2.07-3.35,12.3,12.3,0,0,0,.78-4.56,14.48,14.48,0,0,0-.86-5,11.54,11.54,0,0,0-2.46-4A11.22,11.22,0,0,0,22.41.94,13.44,13.44,0,0,0,17.25,0H0V36.87H7.85v-30h8.23A5.55,5.55,0,0,1,20,8.4a5.52,5.52,0,0,1,1.57,4.2,5.37,5.37,0,0,1-1.52,4.09,6,6,0,0,1-4,1.55l-4.8.28-1,2.15,10.61,16.2h9l-9.4-13A13.08,13.08,0,0,0,23.82,22.72Z"/></g></g></svg>