<?xml version="1.0" encoding="UTF-8"?>
<svg width="20px" height="20px" viewBox="0 0 498 498" version="1.1" xmlns="http://www.w3.org/2000/svg" xmlns:xlink="http://www.w3.org/1999/xlink">
    <!-- Generator: Sketch 55.2 (78181) - https://sketchapp.com -->
    <title>noun_not visible_2214948</title>
    <desc>Created with Sketch.</desc>
    <g id="Page-1" stroke="none" stroke-width="1" fill="none" fill-rule="evenodd">
        <g id="noun_not-visible_2214948" fill="#adb5bd">
            <g id="Group">
                <g transform="translate(0.000000, 159.000000)" fill-rule="nonzero">
                    <g id="h1QsrhoovO-link">
                        <path d="M93.07,0.01 C59.72,22.51 28.68,52.76 0.76,90 C86.09,206.36 204.78,249.81 314.94,221.1 C310.98,217.15 279.33,185.5 275.38,181.54 C266.07,183.09 257.53,183.09 249,183.09 C179.96,183.09 114.79,150.51 60.49,90 C81.44,67.5 103.16,48.11 126.43,33.37 C119.76,26.7 96.41,3.35 93.07,0.01 Z" id="h1QsrhoovO"></path>
                    </g>
                    <g id="h1QsrhoovO-link" fill-opacity="0" stroke="#adb5bd" stroke-opacity="0">
                        <path d="M93.07,0.01 C59.72,22.51 28.68,52.76 0.76,90 C86.09,206.36 204.78,249.81 314.94,221.1 C310.98,217.15 279.33,185.5 275.38,181.54 C266.07,183.09 257.53,183.09 249,183.09 C179.96,183.09 114.79,150.51 60.49,90 C81.44,67.5 103.16,48.11 126.43,33.37 C119.76,26.7 96.41,3.35 93.07,0.01 Z" id="h1QsrhoovO"></path>
                    </g>
                </g>
                <g transform="translate(155.000000, 221.000000)" fill-rule="nonzero">
                    <g id="g1VUHGRtY-link">
                        <path d="M90.12,90.06 C84.17,84.11 54.44,54.38 0.91,0.85 C28.32,58.77 58.06,88.51 90.12,90.06 Z" id="g1VUHGRtY"></path>
                    </g>
                    <g id="g1VUHGRtY-link" fill-opacity="0" stroke="#adb5bd" stroke-opacity="0">
                        <path d="M90.12,90.06 C84.17,84.11 54.44,54.38 0.91,0.85 C28.32,58.77 58.06,88.51 90.12,90.06 Z" id="g1VUHGRtY"></path>
                    </g>
                </g>
                <g fill-rule="nonzero">
                    <g id="a4i0MDyK7Z-link">
                        <path d="M33.74,12.02 L59.66,37.94 L64.46,42.74 L82.38,60.66 L86.54,64.82 L90.57,68.85 L94.48,72.76 L98.25,76.53 L101.9,80.18 L108.81,87.09 L115.21,93.49 L121.1,99.38 L126.48,104.76 L128.97,107.25 L145.68,123.96 L146.89,125.17 L147.98,126.26 L148.94,127.22 L149.77,128.05 L150.48,128.76 L151.29,128.41 L152.11,128.07 L152.92,127.74 L153.74,127.41 L154.55,127.08 L155.37,126.76 L156.18,126.45 L157,126.14 L157.81,125.83 L158.62,125.53 L159.44,125.24 L160.25,124.95 L161.07,124.66 L161.88,124.37 L162.7,124.09 L163.51,123.82 L164.33,123.54 L165.14,123.28 L165.96,123.01 L166.77,122.75 L167.58,122.49 L168.4,122.23 L169.21,121.97 L170.03,121.72 L170.84,121.47 L171.66,121.22 L172.47,120.98 L173.29,120.73 L174.1,120.49 L174.92,120.25 L175.73,120.01 L176.54,119.77 L177.36,119.53 L178.17,119.3 L178.99,119.06 L179.8,118.83 L180.62,118.6 L181.43,118.36 L182.25,118.13 L183.06,117.9 L184.69,117.49 L186.32,117.1 L187.96,116.71 L189.6,116.34 L191.24,115.97 L192.88,115.61 L194.53,115.26 L196.17,114.92 L197.82,114.59 L199.47,114.27 L201.12,113.96 L202.78,113.66 L204.43,113.37 L206.09,113.08 L207.74,112.81 L209.4,112.55 L211.06,112.29 L212.71,112.05 L214.37,111.82 L216.03,111.59 L217.69,111.38 L219.35,111.18 L221,110.99 L222.66,110.8 L224.32,110.63 L225.97,110.47 L227.63,110.32 L229.28,110.18 L230.94,110.05 L232.59,109.93 L234.24,109.83 L235.89,109.73 L237.53,109.64 L239.18,109.57 L240.82,109.51 L242.46,109.46 L244.1,109.42 L245.74,109.39 L247.37,109.37 L249,109.36 L255.75,109.45 L262.5,109.71 L269.24,110.15 L275.97,110.76 L282.7,111.55 L289.42,112.51 L296.13,113.64 L302.82,114.95 L309.49,116.43 L316.15,118.09 L322.79,119.92 L329.4,121.93 L335.99,124.11 L342.56,126.47 L349.09,129 L355.6,131.71 L362.07,134.59 L368.5,137.64 L374.9,140.87 L381.27,144.27 L387.59,147.85 L393.87,151.6 L400.1,155.53 L406.29,159.63 L412.42,163.91 L418.51,168.36 L424.55,172.99 L430.52,177.79 L436.45,182.76 L442.31,187.91 L448.11,193.23 L453.85,198.73 L459.52,204.4 L465.13,210.25 L470.67,216.27 L476.13,222.47 L481.53,228.84 L486.84,235.39 L492.08,242.11 L497.24,249 L495.14,251.84 L493.03,254.64 L490.91,257.42 L488.77,260.17 L486.63,262.89 L484.47,265.58 L482.3,268.24 L480.12,270.88 L477.93,273.48 L475.73,276.05 L473.51,278.6 L471.29,281.12 L469.06,283.6 L466.81,286.06 L464.56,288.49 L462.29,290.89 L460.01,293.26 L457.73,295.6 L455.43,297.92 L453.12,300.2 L450.8,302.45 L448.48,304.68 L446.14,306.88 L443.79,309.04 L441.43,311.18 L439.06,313.29 L436.69,315.37 L434.3,317.42 L431.9,319.44 L429.5,321.44 L427.08,323.4 L424.66,325.33 L422.22,327.24 L419.78,329.12 L417.33,330.96 L414.86,332.78 L412.39,334.57 L409.91,336.33 L407.42,338.06 L404.93,339.76 L404.29,340.23 L403.64,340.69 L402.99,341.15 L402.34,341.6 L401.69,342.05 L401.04,342.5 L400.38,342.95 L399.72,343.39 L399.06,343.83 L398.39,344.27 L397.73,344.71 L397.06,345.14 L396.39,345.57 L395.72,345.99 L395.04,346.42 L394.36,346.84 L393.69,347.26 L393.01,347.67 L392.33,348.08 L391.64,348.49 L390.96,348.9 L390.27,349.3 L389.59,349.7 L388.9,350.1 L388.21,350.49 L387.52,350.88 L386.83,351.27 L386.13,351.66 L385.44,352.04 L384.75,352.42 L384.05,352.79 L383.36,353.17 L382.66,353.54 L381.96,353.91 L381.27,354.27 L380.57,354.63 L379.87,354.99 L379.17,355.35 L378.47,355.7 L377.78,356.05 L497.24,475.52 L475.52,497.24 L0.76,22.48 L22.48,0.76 L28.17,6.45 L33.74,12.02 Z M326.58,171.42 L326.34,171.43 L326.11,171.43 L325.88,171.44 L325.64,171.45 L325.41,171.46 L325.18,171.47 L324.95,171.49 L324.71,171.51 L324.48,171.53 L324.25,171.56 L324.02,171.58 L323.78,171.61 L323.55,171.64 L323.32,171.68 L323.08,171.71 L322.85,171.75 L322.62,171.79 L322.39,171.82 L322.15,171.87 L321.92,171.91 L321.69,171.95 L321.46,172 L321.22,172.05 L320.99,172.09 L320.76,172.14 L320.52,172.19 L320.29,172.25 L320.06,172.3 L319.83,172.35 L319.59,172.41 L319.36,172.46 L319.13,172.52 L318.9,172.57 L318.66,172.63 L318.43,172.69 L318.2,172.74 L317.96,172.8 L317.73,172.86 L317.5,172.92 L317.27,172.98 L316.34,173.28 L315.43,173.62 L314.53,173.98 L313.64,174.37 L312.77,174.78 L311.91,175.23 L311.07,175.7 L310.24,176.19 L309.43,176.71 L308.64,177.25 L307.86,177.82 L307.1,178.41 L306.36,179.03 L305.64,179.67 L304.94,180.33 L304.26,181.01 L303.6,181.71 L302.96,182.43 L302.34,183.17 L301.75,183.93 L301.18,184.71 L300.64,185.51 L300.11,186.33 L299.62,187.16 L299.15,188.01 L298.7,188.88 L298.28,189.76 L297.89,190.66 L297.53,191.58 L297.19,192.5 L296.89,193.44 L296.61,194.4 L296.37,195.37 L296.15,196.35 L295.97,197.34 L295.82,198.34 L295.7,199.35 L295.61,200.38 L295.56,201.41 L295.55,202.45 L295.55,203.09 L295.57,203.73 L295.61,204.36 L295.66,204.99 L295.72,205.62 L295.8,206.24 L295.89,206.85 L295.99,207.47 L296.1,208.08 L296.22,208.68 L296.36,209.29 L296.51,209.88 L296.67,210.48 L296.84,211.06 L297.02,211.65 L297.21,212.22 L297.41,212.8 L297.62,213.36 L297.84,213.92 L298.07,214.48 L298.3,215.03 L298.55,215.57 L298.8,216.11 L299.06,216.64 L299.33,217.17 L299.61,217.69 L299.89,218.2 L300.18,218.7 L300.48,219.2 L300.78,219.69 L301.09,220.17 L301.4,220.65 L301.72,221.12 L302.05,221.58 L302.38,222.03 L302.71,222.48 L303.05,222.92 L303.39,223.34 L303.73,223.76 L304.08,224.18 L304.2,224.29 L304.31,224.41 L304.43,224.52 L304.54,224.64 L304.66,224.76 L304.78,224.87 L304.89,224.99 L305.01,225.1 L305.13,225.21 L305.24,225.33 L305.36,225.44 L305.48,225.55 L305.59,225.66 L305.71,225.77 L305.82,225.88 L305.94,225.99 L306.06,226.09 L306.17,226.2 L306.29,226.3 L306.41,226.41 L306.52,226.51 L306.64,226.61 L306.76,226.7 L306.87,226.8 L306.99,226.9 L307.1,226.99 L307.22,227.08 L307.34,227.17 L307.45,227.25 L307.57,227.34 L307.69,227.42 L307.8,227.5 L307.92,227.58 L308.04,227.66 L308.15,227.73 L308.27,227.8 L308.38,227.87 L308.5,227.93 L308.62,227.99 L308.73,228.05 L308.96,228.17 L309.19,228.29 L309.42,228.4 L309.64,228.52 L309.86,228.63 L310.08,228.75 L310.3,228.86 L310.51,228.98 L310.73,229.09 L310.94,229.21 L311.15,229.32 L311.36,229.43 L311.57,229.54 L311.77,229.65 L311.98,229.76 L312.18,229.87 L312.39,229.97 L312.59,230.08 L312.8,230.18 L313,230.28 L313.2,230.39 L313.41,230.49 L313.61,230.58 L313.82,230.68 L314.02,230.77 L314.23,230.87 L314.43,230.96 L314.64,231.05 L314.85,231.13 L315.06,231.22 L315.27,231.3 L315.49,231.38 L315.7,231.46 L315.92,231.53 L316.14,231.61 L316.36,231.68 L316.58,231.75 L316.81,231.81 L317.04,231.87 L317.27,231.93 L317.5,231.99 L317.73,232.05 L317.96,232.11 L318.2,232.17 L318.43,232.22 L318.66,232.28 L318.9,232.34 L319.13,232.39 L319.36,232.45 L319.59,232.5 L319.83,232.56 L320.06,232.61 L320.29,232.66 L320.52,232.71 L320.76,232.77 L320.99,232.81 L321.22,232.86 L321.46,232.91 L321.69,232.96 L321.92,233 L322.15,233.04 L322.39,233.08 L322.62,233.12 L322.85,233.16 L323.08,233.2 L323.32,233.23 L323.55,233.27 L323.78,233.3 L324.02,233.32 L324.25,233.35 L324.48,233.38 L324.71,233.4 L324.95,233.42 L325.18,233.44 L325.41,233.45 L325.64,233.46 L325.88,233.47 L326.11,233.48 L326.34,233.48 L326.58,233.48 L326.98,233.48 L327.39,233.47 L327.8,233.46 L328.2,233.44 L328.61,233.41 L329.01,233.38 L329.42,233.35 L329.82,233.3 L330.22,233.26 L330.62,233.21 L331.02,233.15 L331.42,233.09 L331.82,233.02 L332.21,232.95 L332.6,232.87 L332.99,232.79 L333.38,232.7 L333.77,232.61 L334.15,232.52 L334.53,232.42 L334.9,232.31 L335.28,232.21 L335.65,232.09 L336.02,231.98 L336.38,231.86 L336.74,231.73 L337.09,231.6 L337.45,231.47 L337.8,231.33 L338.14,231.19 L338.48,231.05 L338.81,230.9 L339.14,230.75 L339.47,230.6 L339.79,230.44 L340.11,230.28 L340.42,230.12 L340.72,229.95 L341.02,229.78 L341.32,229.61 L341.19,230.54 L341.06,231.47 L340.93,232.4 L340.78,233.33 L340.62,234.26 L340.46,235.18 L340.29,236.11 L340.1,237.03 L339.91,237.96 L339.72,238.88 L339.51,239.8 L339.29,240.71 L339.06,241.63 L338.83,242.54 L338.59,243.45 L338.34,244.35 L338.08,245.25 L337.81,246.15 L337.53,247.04 L337.24,247.93 L336.95,248.82 L336.64,249.7 L336.33,250.57 L336.01,251.45 L335.68,252.31 L335.34,253.17 L334.99,254.02 L334.64,254.87 L334.27,255.72 L333.9,256.55 L333.51,257.38 L333.12,258.2 L332.72,259.02 L332.31,259.83 L331.9,260.63 L331.47,261.42 L331.04,262.21 L330.59,262.99 L330.14,263.75 L329.68,264.52 L329.33,265.21 L328.96,265.9 L328.59,266.58 L328.21,267.26 L327.83,267.93 L327.43,268.6 L327.03,269.26 L326.62,269.92 L326.2,270.57 L325.78,271.22 L325.34,271.86 L324.9,272.5 L324.46,273.13 L324,273.75 L323.54,274.37 L323.08,274.99 L322.6,275.6 L322.12,276.21 L321.64,276.81 L321.15,277.41 L320.65,278.01 L320.14,278.6 L319.64,279.18 L319.12,279.76 L318.6,280.34 L318.08,280.91 L317.55,281.48 L317.02,282.05 L316.48,282.61 L315.93,283.17 L315.39,283.72 L314.83,284.28 L314.28,284.82 L313.72,285.37 L313.15,285.91 L312.59,286.45 L312.02,286.98 L311.44,287.51 L310.87,288.04 L310.28,288.56 L342.87,321.15 L343.62,320.79 L344.37,320.44 L345.12,320.09 L345.87,319.73 L346.61,319.37 L347.36,319 L348.09,318.63 L348.83,318.27 L349.56,317.89 L350.3,317.52 L351.03,317.15 L351.75,316.77 L352.48,316.39 L353.2,316.01 L353.93,315.62 L354.65,315.24 L355.36,314.85 L356.08,314.46 L356.8,314.07 L357.51,313.68 L358.22,313.29 L358.93,312.89 L359.64,312.49 L360.35,312.1 L361.06,311.7 L361.76,311.3 L362.47,310.9 L363.17,310.5 L363.87,310.09 L364.58,309.69 L365.28,309.29 L365.98,308.88 L366.68,308.48 L367.38,308.07 L368.08,307.67 L368.78,307.26 L369.47,306.85 L370.17,306.44 L370.87,306.04 L371.57,305.63 L373.31,304.52 L375.05,303.39 L376.79,302.25 L378.53,301.09 L380.26,299.92 L381.99,298.73 L383.71,297.53 L385.43,296.32 L387.15,295.08 L388.87,293.84 L390.58,292.57 L392.28,291.3 L393.99,290 L395.69,288.7 L397.38,287.37 L399.07,286.03 L400.76,284.68 L402.45,283.31 L404.13,281.92 L405.8,280.52 L407.47,279.1 L409.14,277.66 L410.8,276.21 L412.46,274.74 L414.11,273.26 L415.76,271.76 L417.4,270.24 L419.04,268.71 L420.67,267.16 L422.3,265.59 L423.92,264.01 L425.54,262.41 L427.15,260.79 L428.76,259.16 L430.36,257.51 L431.96,255.84 L433.55,254.16 L435.13,252.46 L436.71,250.74 L438.28,249 L436.18,246.69 L434.07,244.4 L431.95,242.14 L429.82,239.9 L427.67,237.69 L425.51,235.51 L423.35,233.36 L421.17,231.23 L418.98,229.13 L416.78,227.06 L414.57,225.02 L412.35,223 L410.13,221.01 L407.89,219.05 L405.64,217.12 L403.38,215.21 L401.12,213.34 L398.84,211.49 L396.55,209.67 L394.26,207.88 L391.96,206.12 L389.65,204.39 L387.33,202.69 L385,201.02 L382.66,199.38 L380.32,197.77 L377.97,196.18 L375.61,194.63 L373.24,193.11 L370.87,191.62 L368.48,190.16 L366.1,188.73 L363.7,187.33 L361.3,185.96 L358.89,184.62 L356.47,183.32 L354.05,182.04 L351.62,180.8 L349.19,179.59 L346.75,178.41 L346.34,178.18 L345.94,177.95 L345.54,177.73 L345.14,177.52 L344.74,177.31 L344.35,177.11 L343.96,176.91 L343.57,176.71 L343.18,176.52 L342.79,176.33 L342.41,176.15 L342.03,175.97 L341.64,175.79 L341.26,175.62 L340.88,175.45 L340.5,175.28 L340.12,175.11 L339.74,174.95 L339.37,174.79 L338.99,174.62 L338.61,174.46 L338.23,174.31 L337.85,174.15 L337.47,173.99 L337.09,173.84 L336.71,173.68 L336.33,173.53 L335.95,173.37 L335.57,173.22 L335.18,173.06 L334.8,172.9 L334.41,172.75 L334.02,172.59 L333.63,172.43 L333.23,172.27 L332.84,172.1 L332.44,171.94 L332.04,171.77 L331.64,171.6 L331.23,171.42 L331.17,171.42 L331.12,171.42 L331.07,171.41 L331.02,171.4 L330.97,171.39 L330.93,171.38 L330.89,171.36 L330.85,171.34 L330.81,171.32 L330.77,171.3 L330.73,171.28 L330.7,171.26 L330.67,171.23 L330.63,171.21 L330.6,171.18 L330.57,171.15 L330.54,171.12 L330.51,171.09 L330.48,171.07 L330.43,171.01 L330.4,170.98 L330.37,170.95 L330.34,170.92 L330.31,170.89 L330.27,170.87 L330.24,170.84 L330.21,170.82 L330.18,170.79 L330.14,170.77 L330.1,170.75 L330.06,170.73 L330.02,170.71 L329.98,170.7 L329.94,170.68 L329.89,170.67 L329.84,170.66 L329.79,170.65 L329.74,170.65 L329.68,170.65 L329.68,171.42 L326.58,171.42 Z" id="a4i0MDyK7Z"></path>
                    </g>
                    <g id="a4i0MDyK7Z-link" fill-opacity="0" stroke="#adb5bd" stroke-opacity="0">
                        <path d="M33.74,12.02 L59.66,37.94 L64.46,42.74 L82.38,60.66 L86.54,64.82 L90.57,68.85 L94.48,72.76 L98.25,76.53 L101.9,80.18 L108.81,87.09 L115.21,93.49 L121.1,99.38 L126.48,104.76 L128.97,107.25 L145.68,123.96 L146.89,125.17 L147.98,126.26 L148.94,127.22 L149.77,128.05 L150.48,128.76 L151.29,128.41 L152.11,128.07 L152.92,127.74 L153.74,127.41 L154.55,127.08 L155.37,126.76 L156.18,126.45 L157,126.14 L157.81,125.83 L158.62,125.53 L159.44,125.24 L160.25,124.95 L161.07,124.66 L161.88,124.37 L162.7,124.09 L163.51,123.82 L164.33,123.54 L165.14,123.28 L165.96,123.01 L166.77,122.75 L167.58,122.49 L168.4,122.23 L169.21,121.97 L170.03,121.72 L170.84,121.47 L171.66,121.22 L172.47,120.98 L173.29,120.73 L174.1,120.49 L174.92,120.25 L175.73,120.01 L176.54,119.77 L177.36,119.53 L178.17,119.3 L178.99,119.06 L179.8,118.83 L180.62,118.6 L181.43,118.36 L182.25,118.13 L183.06,117.9 L184.69,117.49 L186.32,117.1 L187.96,116.71 L189.6,116.34 L191.24,115.97 L192.88,115.61 L194.53,115.26 L196.17,114.92 L197.82,114.59 L199.47,114.27 L201.12,113.96 L202.78,113.66 L204.43,113.37 L206.09,113.08 L207.74,112.81 L209.4,112.55 L211.06,112.29 L212.71,112.05 L214.37,111.82 L216.03,111.59 L217.69,111.38 L219.35,111.18 L221,110.99 L222.66,110.8 L224.32,110.63 L225.97,110.47 L227.63,110.32 L229.28,110.18 L230.94,110.05 L232.59,109.93 L234.24,109.83 L235.89,109.73 L237.53,109.64 L239.18,109.57 L240.82,109.51 L242.46,109.46 L244.1,109.42 L245.74,109.39 L247.37,109.37 L249,109.36 L255.75,109.45 L262.5,109.71 L269.24,110.15 L275.97,110.76 L282.7,111.55 L289.42,112.51 L296.13,113.64 L302.82,114.95 L309.49,116.43 L316.15,118.09 L322.79,119.92 L329.4,121.93 L335.99,124.11 L342.56,126.47 L349.09,129 L355.6,131.71 L362.07,134.59 L368.5,137.64 L374.9,140.87 L381.27,144.27 L387.59,147.85 L393.87,151.6 L400.1,155.53 L406.29,159.63 L412.42,163.91 L418.51,168.36 L424.55,172.99 L430.52,177.79 L436.45,182.76 L442.31,187.91 L448.11,193.23 L453.85,198.73 L459.52,204.4 L465.13,210.25 L470.67,216.27 L476.13,222.47 L481.53,228.84 L486.84,235.39 L492.08,242.11 L497.24,249 L495.14,251.84 L493.03,254.64 L490.91,257.42 L488.77,260.17 L486.63,262.89 L484.47,265.58 L482.3,268.24 L480.12,270.88 L477.93,273.48 L475.73,276.05 L473.51,278.6 L471.29,281.12 L469.06,283.6 L466.81,286.06 L464.56,288.49 L462.29,290.89 L460.01,293.26 L457.73,295.6 L455.43,297.92 L453.12,300.2 L450.8,302.45 L448.48,304.68 L446.14,306.88 L443.79,309.04 L441.43,311.18 L439.06,313.29 L436.69,315.37 L434.3,317.42 L431.9,319.44 L429.5,321.44 L427.08,323.4 L424.66,325.33 L422.22,327.24 L419.78,329.12 L417.33,330.96 L414.86,332.78 L412.39,334.57 L409.91,336.33 L407.42,338.06 L404.93,339.76 L404.29,340.23 L403.64,340.69 L402.99,341.15 L402.34,341.6 L401.69,342.05 L401.04,342.5 L400.38,342.95 L399.72,343.39 L399.06,343.83 L398.39,344.27 L397.73,344.71 L397.06,345.14 L396.39,345.57 L395.72,345.99 L395.04,346.42 L394.36,346.84 L393.69,347.26 L393.01,347.67 L392.33,348.08 L391.64,348.49 L390.96,348.9 L390.27,349.3 L389.59,349.7 L388.9,350.1 L388.21,350.49 L387.52,350.88 L386.83,351.27 L386.13,351.66 L385.44,352.04 L384.75,352.42 L384.05,352.79 L383.36,353.17 L382.66,353.54 L381.96,353.91 L381.27,354.27 L380.57,354.63 L379.87,354.99 L379.17,355.35 L378.47,355.7 L377.78,356.05 L497.24,475.52 L475.52,497.24 L0.76,22.48 L22.48,0.76 L28.17,6.45 L33.74,12.02 Z M326.58,171.42 L326.34,171.43 L326.11,171.43 L325.88,171.44 L325.64,171.45 L325.41,171.46 L325.18,171.47 L324.95,171.49 L324.71,171.51 L324.48,171.53 L324.25,171.56 L324.02,171.58 L323.78,171.61 L323.55,171.64 L323.32,171.68 L323.08,171.71 L322.85,171.75 L322.62,171.79 L322.39,171.82 L322.15,171.87 L321.92,171.91 L321.69,171.95 L321.46,172 L321.22,172.05 L320.99,172.09 L320.76,172.14 L320.52,172.19 L320.29,172.25 L320.06,172.3 L319.83,172.35 L319.59,172.41 L319.36,172.46 L319.13,172.52 L318.9,172.57 L318.66,172.63 L318.43,172.69 L318.2,172.74 L317.96,172.8 L317.73,172.86 L317.5,172.92 L317.27,172.98 L316.34,173.28 L315.43,173.62 L314.53,173.98 L313.64,174.37 L312.77,174.78 L311.91,175.23 L311.07,175.7 L310.24,176.19 L309.43,176.71 L308.64,177.25 L307.86,177.82 L307.1,178.41 L306.36,179.03 L305.64,179.67 L304.94,180.33 L304.26,181.01 L303.6,181.71 L302.96,182.43 L302.34,183.17 L301.75,183.93 L301.18,184.71 L300.64,185.51 L300.11,186.33 L299.62,187.16 L299.15,188.01 L298.7,188.88 L298.28,189.76 L297.89,190.66 L297.53,191.58 L297.19,192.5 L296.89,193.44 L296.61,194.4 L296.37,195.37 L296.15,196.35 L295.97,197.34 L295.82,198.34 L295.7,199.35 L295.61,200.38 L295.56,201.41 L295.55,202.45 L295.55,203.09 L295.57,203.73 L295.61,204.36 L295.66,204.99 L295.72,205.62 L295.8,206.24 L295.89,206.85 L295.99,207.47 L296.1,208.08 L296.22,208.68 L296.36,209.29 L296.51,209.88 L296.67,210.48 L296.84,211.06 L297.02,211.65 L297.21,212.22 L297.41,212.8 L297.62,213.36 L297.84,213.92 L298.07,214.48 L298.3,215.03 L298.55,215.57 L298.8,216.11 L299.06,216.64 L299.33,217.17 L299.61,217.69 L299.89,218.2 L300.18,218.7 L300.48,219.2 L300.78,219.69 L301.09,220.17 L301.4,220.65 L301.72,221.12 L302.05,221.58 L302.38,222.03 L302.71,222.48 L303.05,222.92 L303.39,223.34 L303.73,223.76 L304.08,224.18 L304.2,224.29 L304.31,224.41 L304.43,224.52 L304.54,224.64 L304.66,224.76 L304.78,224.87 L304.89,224.99 L305.01,225.1 L305.13,225.21 L305.24,225.33 L305.36,225.44 L305.48,225.55 L305.59,225.66 L305.71,225.77 L305.82,225.88 L305.94,225.99 L306.06,226.09 L306.17,226.2 L306.29,226.3 L306.41,226.41 L306.52,226.51 L306.64,226.61 L306.76,226.7 L306.87,226.8 L306.99,226.9 L307.1,226.99 L307.22,227.08 L307.34,227.17 L307.45,227.25 L307.57,227.34 L307.69,227.42 L307.8,227.5 L307.92,227.58 L308.04,227.66 L308.15,227.73 L308.27,227.8 L308.38,227.87 L308.5,227.93 L308.62,227.99 L308.73,228.05 L308.96,228.17 L309.19,228.29 L309.42,228.4 L309.64,228.52 L309.86,228.63 L310.08,228.75 L310.3,228.86 L310.51,228.98 L310.73,229.09 L310.94,229.21 L311.15,229.32 L311.36,229.43 L311.57,229.54 L311.77,229.65 L311.98,229.76 L312.18,229.87 L312.39,229.97 L312.59,230.08 L312.8,230.18 L313,230.28 L313.2,230.39 L313.41,230.49 L313.61,230.58 L313.82,230.68 L314.02,230.77 L314.23,230.87 L314.43,230.96 L314.64,231.05 L314.85,231.13 L315.06,231.22 L315.27,231.3 L315.49,231.38 L315.7,231.46 L315.92,231.53 L316.14,231.61 L316.36,231.68 L316.58,231.75 L316.81,231.81 L317.04,231.87 L317.27,231.93 L317.5,231.99 L317.73,232.05 L317.96,232.11 L318.2,232.17 L318.43,232.22 L318.66,232.28 L318.9,232.34 L319.13,232.39 L319.36,232.45 L319.59,232.5 L319.83,232.56 L320.06,232.61 L320.29,232.66 L320.52,232.71 L320.76,232.77 L320.99,232.81 L321.22,232.86 L321.46,232.91 L321.69,232.96 L321.92,233 L322.15,233.04 L322.39,233.08 L322.62,233.12 L322.85,233.16 L323.08,233.2 L323.32,233.23 L323.55,233.27 L323.78,233.3 L324.02,233.32 L324.25,233.35 L324.48,233.38 L324.71,233.4 L324.95,233.42 L325.18,233.44 L325.41,233.45 L325.64,233.46 L325.88,233.47 L326.11,233.48 L326.34,233.48 L326.58,233.48 L326.98,233.48 L327.39,233.47 L327.8,233.46 L328.2,233.44 L328.61,233.41 L329.01,233.38 L329.42,233.35 L329.82,233.3 L330.22,233.26 L330.62,233.21 L331.02,233.15 L331.42,233.09 L331.82,233.02 L332.21,232.95 L332.6,232.87 L332.99,232.79 L333.38,232.7 L333.77,232.61 L334.15,232.52 L334.53,232.42 L334.9,232.31 L335.28,232.21 L335.65,232.09 L336.02,231.98 L336.38,231.86 L336.74,231.73 L337.09,231.6 L337.45,231.47 L337.8,231.33 L338.14,231.19 L338.48,231.05 L338.81,230.9 L339.14,230.75 L339.47,230.6 L339.79,230.44 L340.11,230.28 L340.42,230.12 L340.72,229.95 L341.02,229.78 L341.32,229.61 L341.19,230.54 L341.06,231.47 L340.93,232.4 L340.78,233.33 L340.62,234.26 L340.46,235.18 L340.29,236.11 L340.1,237.03 L339.91,237.96 L339.72,238.88 L339.51,239.8 L339.29,240.71 L339.06,241.63 L338.83,242.54 L338.59,243.45 L338.34,244.35 L338.08,245.25 L337.81,246.15 L337.53,247.04 L337.24,247.93 L336.95,248.82 L336.64,249.7 L336.33,250.57 L336.01,251.45 L335.68,252.31 L335.34,253.17 L334.99,254.02 L334.64,254.87 L334.27,255.72 L333.9,256.55 L333.51,257.38 L333.12,258.2 L332.72,259.02 L332.31,259.83 L331.9,260.63 L331.47,261.42 L331.04,262.21 L330.59,262.99 L330.14,263.75 L329.68,264.52 L329.33,265.21 L328.96,265.9 L328.59,266.58 L328.21,267.26 L327.83,267.93 L327.43,268.6 L327.03,269.26 L326.62,269.92 L326.2,270.57 L325.78,271.22 L325.34,271.86 L324.9,272.5 L324.46,273.13 L324,273.75 L323.54,274.37 L323.08,274.99 L322.6,275.6 L322.12,276.21 L321.64,276.81 L321.15,277.41 L320.65,278.01 L320.14,278.6 L319.64,279.18 L319.12,279.76 L318.6,280.34 L318.08,280.91 L317.55,281.48 L317.02,282.05 L316.48,282.61 L315.93,283.17 L315.39,283.72 L314.83,284.28 L314.28,284.82 L313.72,285.37 L313.15,285.91 L312.59,286.45 L312.02,286.98 L311.44,287.51 L310.87,288.04 L310.28,288.56 L342.87,321.15 L343.62,320.79 L344.37,320.44 L345.12,320.09 L345.87,319.73 L346.61,319.37 L347.36,319 L348.09,318.63 L348.83,318.27 L349.56,317.89 L350.3,317.52 L351.03,317.15 L351.75,316.77 L352.48,316.39 L353.2,316.01 L353.93,315.62 L354.65,315.24 L355.36,314.85 L356.08,314.46 L356.8,314.07 L357.51,313.68 L358.22,313.29 L358.93,312.89 L359.64,312.49 L360.35,312.1 L361.06,311.7 L361.76,311.3 L362.47,310.9 L363.17,310.5 L363.87,310.09 L364.58,309.69 L365.28,309.29 L365.98,308.88 L366.68,308.48 L367.38,308.07 L368.08,307.67 L368.78,307.26 L369.47,306.85 L370.17,306.44 L370.87,306.04 L371.57,305.63 L373.31,304.52 L375.05,303.39 L376.79,302.25 L378.53,301.09 L380.26,299.92 L381.99,298.73 L383.71,297.53 L385.43,296.32 L387.15,295.08 L388.87,293.84 L390.58,292.57 L392.28,291.3 L393.99,290 L395.69,288.7 L397.38,287.37 L399.07,286.03 L400.76,284.68 L402.45,283.31 L404.13,281.92 L405.8,280.52 L407.47,279.1 L409.14,277.66 L410.8,276.21 L412.46,274.74 L414.11,273.26 L415.76,271.76 L417.4,270.24 L419.04,268.71 L420.67,267.16 L422.3,265.59 L423.92,264.01 L425.54,262.41 L427.15,260.79 L428.76,259.16 L430.36,257.51 L431.96,255.84 L433.55,254.16 L435.13,252.46 L436.71,250.74 L438.28,249 L436.18,246.69 L434.07,244.4 L431.95,242.14 L429.82,239.9 L427.67,237.69 L425.51,235.51 L423.35,233.36 L421.17,231.23 L418.98,229.13 L416.78,227.06 L414.57,225.02 L412.35,223 L410.13,221.01 L407.89,219.05 L405.64,217.12 L403.38,215.21 L401.12,213.34 L398.84,211.49 L396.55,209.67 L394.26,207.88 L391.96,206.12 L389.65,204.39 L387.33,202.69 L385,201.02 L382.66,199.38 L380.32,197.77 L377.97,196.18 L375.61,194.63 L373.24,193.11 L370.87,191.62 L368.48,190.16 L366.1,188.73 L363.7,187.33 L361.3,185.96 L358.89,184.62 L356.47,183.32 L354.05,182.04 L351.62,180.8 L349.19,179.59 L346.75,178.41 L346.34,178.18 L345.94,177.95 L345.54,177.73 L345.14,177.52 L344.74,177.31 L344.35,177.11 L343.96,176.91 L343.57,176.71 L343.18,176.52 L342.79,176.33 L342.41,176.15 L342.03,175.97 L341.64,175.79 L341.26,175.62 L340.88,175.45 L340.5,175.28 L340.12,175.11 L339.74,174.95 L339.37,174.79 L338.99,174.62 L338.61,174.46 L338.23,174.31 L337.85,174.15 L337.47,173.99 L337.09,173.84 L336.71,173.68 L336.33,173.53 L335.95,173.37 L335.57,173.22 L335.18,173.06 L334.8,172.9 L334.41,172.75 L334.02,172.59 L333.63,172.43 L333.23,172.27 L332.84,172.1 L332.44,171.94 L332.04,171.77 L331.64,171.6 L331.23,171.42 L331.17,171.42 L331.12,171.42 L331.07,171.41 L331.02,171.4 L330.97,171.39 L330.93,171.38 L330.89,171.36 L330.85,171.34 L330.81,171.32 L330.77,171.3 L330.73,171.28 L330.7,171.26 L330.67,171.23 L330.63,171.21 L330.6,171.18 L330.57,171.15 L330.54,171.12 L330.51,171.09 L330.48,171.07 L330.43,171.01 L330.4,170.98 L330.37,170.95 L330.34,170.92 L330.31,170.89 L330.27,170.87 L330.24,170.84 L330.21,170.82 L330.18,170.79 L330.14,170.77 L330.1,170.75 L330.06,170.73 L330.02,170.71 L329.98,170.7 L329.94,170.68 L329.89,170.67 L329.84,170.66 L329.79,170.65 L329.74,170.65 L329.68,170.65 L329.68,171.42 L326.58,171.42 Z" id="a4i0MDyK7Z"></path>
                    </g>
                </g>
            </g>
        </g>
    </g>
</svg>