<svg xmlns="http://www.w3.org/2000/svg" viewBox="0 0 1986 398" width="1986" height="398">
	<defs>
		<clipPath clipPathUnits="userSpaceOnUse" id="cp1">
			<path d="M-527 -635L2506 -635L2506 1049L-527 1049Z" />
		</clipPath>
	</defs>
	<style>
		tspan { white-space:pre }
		.shp0 { fill: #283746 } 
		.shp1 { fill: #283746 } 
		.shp2 { mix-blend-mode: multiply;fill: #283746 } 
	</style>
	<g id="Page 1" clip-path="url(#cp1)">
		<path id="Path 1" class="shp0" d="M40.38 0.17C56.86 0.17 72.42 3.65 86.2 9.81C108.24 19.67 125.7 36.43 135 56.87C135.74 58.49 136.42 60.13 137.06 61.79L137.9 64.07L198.54 230.69L231.68 321.75L231.72 321.73C235.7 332.57 246.1 340.33 258.34 340.33L295.05 340.34L295.05 393.37L295.05 397.03L254.9 397.03C238.42 397.03 222.86 393.55 209.1 387.39C187.06 377.55 169.6 360.79 160.3 340.33C159.54 338.71 158.86 337.07 158.22 335.39C157.94 334.69 157.68 333.95 157.42 333.21L96.74 166.49L63.62 75.45L63.58 75.47C59.6 64.61 49.18 56.87 36.96 56.87L0.24 56.87L0.24 3.83L0.24 0.17L40.38 0.17Z" />
		<path id="Path 2" fill-rule="evenodd" class="shp1" d="M576.04 85.49C573.4 84.61 570.32 83.88 566.8 83.29C563.28 82.71 559.76 82.41 556.24 82.41C549.49 82.41 544.06 83.59 539.96 85.93C535.85 88.28 532.62 91.43 530.28 95.39C527.92 99.35 526.32 103.83 525.44 108.81C524.56 113.8 524.12 118.79 524.12 123.77L524.12 145.77L572.96 145.77L572.96 199.45L524.12 199.45L524.12 364.89L451.96 364.89L451.96 199.45L411.92 199.45L411.92 145.77L451.96 145.77L451.96 124.65C451.96 111.16 453.42 98.33 456.36 86.15C459.29 73.98 464.35 63.27 471.54 54.03C478.72 44.79 488.4 37.46 500.58 32.03C512.75 26.61 527.92 23.89 546.12 23.89C552.28 23.89 558.36 24.26 564.38 24.99C570.39 25.73 575.89 26.83 580.88 28.29L576.04 85.49ZM754.56 364.89L754.56 334.53L753.68 334.53C751.04 339.52 747.59 344.21 743.34 348.61C739.08 353.01 734.1 356.83 728.38 360.05C722.66 363.28 716.35 365.91 709.46 367.97C702.56 370.02 695.3 371.05 687.68 371.05C673.01 371.05 660.62 368.41 650.5 363.13C640.38 357.85 632.16 351.03 625.85 342.67C619.55 334.31 615 324.78 612.22 314.07C609.43 303.37 608.04 292.44 608.04 281.29L608.04 145.77L680.64 145.77L680.64 264.57C680.64 270.73 681.08 276.6 681.96 282.17C682.84 287.75 684.52 292.73 687.02 297.13C689.51 301.53 692.8 304.98 696.92 307.47C701.02 309.97 706.44 311.21 713.19 311.21C725.8 311.21 735.42 306.52 742.02 297.13C748.62 287.75 751.92 276.75 751.92 264.13L751.92 145.77L824.08 145.77L824.08 364.89L754.56 364.89ZM1020.28 364.89L1020.28 245.21C1020.28 239.05 1019.76 233.19 1018.74 227.61C1017.71 222.04 1016.02 217.13 1013.68 212.87C1011.32 208.62 1008.03 205.25 1003.78 202.75C999.52 200.26 994.17 199.01 987.72 199.01C981.26 199.01 975.62 200.26 970.78 202.75C965.94 205.25 961.9 208.69 958.68 213.09C955.45 217.49 953.03 222.55 951.42 228.27C949.8 233.99 949 239.93 949 246.09L949 364.89L876.4 364.89L876.4 145.77L946.36 145.77L946.36 176.13L947.24 176.13C949.88 171.44 953.32 166.82 957.58 162.27C961.82 157.73 966.82 153.84 972.54 150.61C978.26 147.39 984.49 144.75 991.24 142.69C997.98 140.64 1005.17 139.61 1012.8 139.61C1027.46 139.61 1039.93 142.25 1050.2 147.53C1060.46 152.81 1068.75 159.63 1075.06 167.99C1081.36 176.35 1085.91 185.96 1088.7 196.81C1091.48 207.67 1092.88 218.52 1092.88 229.37L1092.88 364.89L1020.28 364.89ZM1311.32 364.89L1311.32 336.29L1310.44 336.29C1303.39 347.44 1293.34 356.02 1280.3 362.03C1267.24 368.04 1253.38 371.05 1238.72 371.05C1222.29 371.05 1207.62 367.82 1194.72 361.37C1181.8 354.92 1170.88 346.34 1161.94 335.63C1152.98 324.93 1146.16 312.53 1141.48 298.45C1136.78 284.37 1134.44 269.71 1134.44 254.45C1134.44 239.2 1136.86 224.6 1141.7 210.67C1146.54 196.74 1153.43 184.49 1162.38 173.93C1171.32 163.37 1182.18 155.01 1194.94 148.85C1207.7 142.69 1222 139.61 1237.84 139.61C1253.97 139.61 1267.61 142.69 1278.76 148.85C1289.9 155.01 1298.55 161.76 1304.72 169.09L1305.6 169.09L1305.6 32.25L1377.76 32.25L1377.76 364.89L1311.32 364.89ZM1308.68 254.89C1308.68 247.85 1307.43 240.96 1304.94 234.21C1302.44 227.47 1298.92 221.45 1294.38 216.17C1289.82 210.89 1284.32 206.64 1277.88 203.41C1271.42 200.19 1264.09 198.57 1255.88 198.57C1247.36 198.57 1239.89 200.19 1233.44 203.41C1226.98 206.64 1221.55 210.82 1217.16 215.95C1212.76 221.09 1209.46 227.03 1207.26 233.77C1205.05 240.52 1203.96 247.41 1203.96 254.45C1203.96 261.49 1205.05 268.46 1207.26 275.35C1209.46 282.25 1212.76 288.33 1217.16 293.61C1221.55 298.89 1226.98 303.15 1233.44 306.37C1239.89 309.6 1247.36 311.21 1255.88 311.21C1264.09 311.21 1271.42 309.6 1277.88 306.37C1284.32 303.15 1289.82 298.89 1294.38 293.61C1298.92 288.33 1302.44 282.32 1304.94 275.57C1307.43 268.83 1308.68 261.93 1308.68 254.89Z" />
		<path id="Path 3" class="shp0" d="M1436.16 32.25L1509.64 32.25L1509.64 364.89L1436.16 364.89L1436.16 32.25ZM1569.28 145.77L1641.44 145.77L1641.44 364.89L1569.28 364.89L1569.28 145.77ZM1646.72 75.81C1646.72 81.39 1645.62 86.59 1643.42 91.43C1641.22 96.27 1638.28 100.45 1634.62 103.97C1630.95 107.49 1626.54 110.28 1621.42 112.33C1616.28 114.39 1610.93 115.41 1605.36 115.41C1593.62 115.41 1583.8 111.53 1575.88 103.75C1567.96 95.98 1564 86.67 1564 75.81C1564 70.53 1565.02 65.47 1567.08 60.63C1569.13 55.79 1572.06 51.61 1575.88 48.09C1579.69 44.57 1584.09 41.71 1589.08 39.51C1594.06 37.31 1599.49 36.21 1605.36 36.21C1610.93 36.21 1616.28 37.24 1621.42 39.29C1626.54 41.35 1630.95 44.13 1634.62 47.65C1638.28 51.17 1641.22 55.35 1643.42 60.19C1645.62 65.03 1646.72 70.24 1646.72 75.81ZM1985.04 199.45L1985.04 145.77L1933.56 145.77L1933.56 88.13L1862.72 88.13L1862.72 145.77L1785.67 145.77L1785.67 123.77C1785.67 118.79 1786.11 113.81 1786.99 108.81C1787.87 103.83 1789.48 99.35 1791.83 95.39C1794.18 91.43 1797.4 88.28 1801.51 85.93C1805.62 83.59 1811.04 82.41 1817.8 82.41C1821.31 82.41 1824.83 82.71 1828.35 83.29C1831.87 83.89 1834.95 84.61 1837.59 85.49L1842.43 28.29C1837.44 26.83 1831.94 25.73 1825.93 24.99C1819.92 24.26 1813.83 23.89 1807.67 23.89C1789.48 23.89 1774.3 26.61 1762.13 32.03C1749.96 37.46 1740.28 44.79 1733.09 54.03C1725.9 63.27 1720.84 73.99 1717.91 86.15C1714.98 98.33 1713.51 111.16 1713.51 124.65L1713.51 145.77L1673.47 145.77L1673.47 199.45L1713.51 199.45L1713.51 364.89L1785.67 364.89L1785.67 199.45L1863.16 199.45L1863.16 292.09C1863.16 303.86 1864.48 314.52 1867.12 324.08C1869.76 333.63 1874.08 341.87 1880.1 348.78C1886.11 355.69 1894.1 360.99 1904.08 364.66C1914.05 368.33 1926.37 370.17 1941.04 370.17C1948.66 370.17 1956.29 369.51 1963.92 368.19C1971.54 366.87 1977.85 365.33 1982.84 363.57L1981.96 310.77C1979.32 311.95 1976.02 312.83 1972.06 313.41C1968.1 314 1964.36 314.29 1960.84 314.29C1950.57 314.29 1943.46 311.72 1939.5 306.56C1935.54 301.41 1933.56 293.68 1933.56 283.38L1933.56 199.45L1985.04 199.45Z" />
		<path id="Path 4" class="shp2" d="M254.9 0.17C238.42 0.17 222.86 3.65 209.08 9.81C187.04 19.67 169.58 36.43 160.28 56.87C159.54 58.49 158.86 60.13 158.22 61.79L157.38 64.07L118.74 170.25L62.6 170.25L62.6 226.94L98.11 226.94L96.74 230.69L63.6 321.75L63.56 321.73C59.58 332.57 49.18 340.33 36.94 340.33L0.24 340.34L0.24 397.03L40.38 397.03C56.86 397.03 72.42 393.55 86.18 387.39C108.22 377.55 125.68 360.79 134.98 340.33C135.74 338.71 136.42 337.07 137.06 335.39C137.34 334.69 137.6 333.95 137.86 333.21L176.54 226.94L232.68 226.94L232.68 170.25L197.17 170.25L198.54 166.49L231.66 75.45L231.7 75.47C235.68 64.61 246.1 56.87 258.32 56.87L295.05 56.87L295.05 0.17L254.9 0.17Z" />
	</g>
</svg>