<?xml version="1.0" encoding="UTF-8"?>
<svg width="62px" height="64px" viewBox="0 0 62 64" version="1.1" xmlns="http://www.w3.org/2000/svg" xmlns:xlink="http://www.w3.org/1999/xlink">
    <!-- Generator: Sketch 55.2 (78181) - https://sketchapp.com -->
    <title>Shape</title>
    <desc>Created with Sketch.</desc>
    <g id="Page-1" stroke="none" stroke-width="1" fill="none" fill-rule="evenodd">
        <g id="noun_person_2211623" fill="#000000" fill-rule="nonzero">
            <path d="M39.603,37.628 C45.965,34.453 50.355,27.896 50.355,20.315 C50.355,9.643 41.672,0.961 31.001,0.961 C20.33,0.961 11.647,9.644 11.647,20.315 C11.647,27.895 16.037,34.453 22.399,37.628 C2.227,42.384 0.911,63.516 0.899,63.756 L3.895,63.905 C3.945,62.917 5.448,39.67 31,39.67 C56.552,39.67 58.055,62.916 58.106,63.905 L61.102,63.756 C61.09,63.516 59.774,42.384 39.603,37.628 Z M14.646,20.315 C14.646,11.297 21.982,3.961 31,3.961 C40.018,3.961 47.354,11.297 47.354,20.315 C47.354,29.333 40.018,36.67 31,36.67 C21.982,36.67 14.646,29.333 14.646,20.315 Z" id="Shape"></path>
        </g>
    </g>
</svg>