<svg xmlns="http://www.w3.org/2000/svg" viewBox="0 0 16 16" width="16" height="16">
	<defs>
		<clipPath clipPathUnits="userSpaceOnUse" id="cp1">
			<path d="M-483 -608L957 -608L957 753L-483 753Z" />
		</clipPath>
	</defs>
	<style>
		tspan { white-space:pre }
		.shp0 { fill: #b94c8f } 
	</style>
	<g id="01_RoklenFX_Registrace/Doklady" clip-path="url(#cp1)">
		<g id="Blok">
			<g id="Doklady">
				<g id="1">
					<g id="Plus">
						<path id="Plus_ico" class="shp0" d="M8.51 15.58C8.24 15.85 7.88 16 7.5 16C6.71 16 6.07 15.36 6.07 14.57L6.07 9.93L1.43 9.93C0.64 9.93 0 9.29 0 8.5C0 8.12 0.15 7.76 0.42 7.49C0.69 7.22 1.05 7.07 1.43 7.07L6.07 7.07L6.07 2.43C6.07 2.05 6.22 1.69 6.49 1.42C6.76 1.15 7.12 1 7.5 1C7.89 1 8.25 1.15 8.52 1.42C8.79 1.69 8.94 2.05 8.93 2.43L8.93 7.07L13.57 7.07C14.36 7.06 15 7.71 15 8.49C15 8.88 14.85 9.24 14.58 9.51L14.58 9.51C14.31 9.78 13.95 9.93 13.57 9.93L8.93 9.93L8.93 14.57C8.93 14.95 8.78 15.31 8.51 15.58ZM0.93 8C0.79 8.13 0.72 8.31 0.72 8.5C0.72 8.9 1.04 9.22 1.43 9.22L6.43 9.21C6.52 9.21 6.61 9.25 6.68 9.32C6.75 9.39 6.79 9.48 6.79 9.57L6.78 14.57C6.78 14.96 7.1 15.28 7.5 15.28C7.88 15.28 8.21 14.95 8.21 14.57L8.22 9.57C8.22 9.37 8.38 9.21 8.57 9.21L13.57 9.21C13.95 9.21 14.29 8.88 14.29 8.5C14.29 8.1 13.96 7.78 13.57 7.78L8.58 7.78C8.38 7.78 8.22 7.62 8.22 7.43L8.22 2.43C8.22 2.24 8.15 2.06 8.01 1.92C7.87 1.79 7.7 1.71 7.5 1.71C7.12 1.72 6.79 2.05 6.79 2.43L6.79 7.43C6.79 7.62 6.63 7.78 6.43 7.78L1.43 7.79C1.24 7.79 1.06 7.86 0.93 8Z" />
					</g>
				</g>
			</g>
		</g>
	</g>
</svg>