<?xml version="1.0" encoding="UTF-8"?>
<svg width="20px" height="20px" viewBox="0 0 268 443" version="1.1" xmlns="http://www.w3.org/2000/svg" xmlns:xlink="http://www.w3.org/1999/xlink">
    <!-- Generator: Sketch 55.2 (78181) - https://sketchapp.com -->
    <title>noun_Question_395588</title>
    <desc>Created with Sketch.</desc>
    <g id="Page-1" stroke="none" stroke-width="1" fill="none" fill-rule="evenodd">
        <g id="noun_Question_395588" fill="#5A7C9C">
            <g id="Group">
                <g transform="translate(76.000000, 332.000000)" fill-rule="nonzero">
                    <g id="a1RbC3Va1v-link">
                        <path d="M59.46,1.04 L61.67,1.26 L63.86,1.57 L66.01,1.97 L68.14,2.45 L70.23,3.01 L72.29,3.66 L74.32,4.38 L76.31,5.17 L78.26,6.04 L80.16,6.99 L82.03,8 L83.85,9.09 L85.63,10.24 L87.36,11.45 L89.03,12.74 L90.66,14.08 L92.23,15.48 L93.75,16.94 L95.22,18.46 L96.62,20.04 L97.96,21.66 L99.24,23.34 L100.46,25.07 L101.61,26.84 L102.7,28.67 L103.71,30.53 L104.66,32.44 L105.53,34.39 L106.32,36.38 L107.05,38.41 L107.69,40.47 L108.25,42.56 L108.73,44.69 L109.13,46.85 L109.44,49.03 L109.67,51.24 L109.8,53.48 L109.85,55.74 L109.8,58 L109.67,60.24 L109.44,62.45 L109.13,64.64 L108.73,66.79 L108.25,68.92 L107.69,71.02 L107.05,73.08 L106.33,75.1 L105.53,77.09 L104.66,79.04 L103.72,80.95 L102.7,82.82 L101.62,84.64 L100.46,86.42 L99.25,88.15 L97.97,89.83 L96.62,91.46 L95.22,93.03 L93.76,94.55 L92.24,96.02 L90.66,97.42 L89.04,98.76 L87.36,100.05 L85.63,101.26 L83.86,102.42 L82.03,103.5 L80.17,104.52 L78.26,105.46 L76.31,106.33 L74.32,107.13 L72.3,107.85 L70.24,108.5 L68.14,109.06 L66.02,109.54 L63.86,109.94 L61.67,110.25 L59.46,110.48 L57.23,110.61 L54.97,110.66 L52.71,110.61 L50.47,110.48 L48.26,110.25 L46.08,109.94 L43.92,109.54 L41.8,109.06 L39.7,108.5 L37.64,107.85 L35.61,107.13 L33.63,106.33 L31.68,105.46 L29.77,104.52 L27.9,103.5 L26.08,102.42 L24.3,101.26 L22.58,100.05 L20.9,98.76 L19.27,97.42 L17.7,96.02 L16.18,94.55 L14.71,93.03 L13.31,91.46 L11.97,89.83 L10.69,88.15 L9.47,86.42 L8.32,84.64 L7.23,82.82 L6.22,80.95 L5.27,79.04 L4.4,77.09 L3.61,75.1 L2.89,73.08 L2.24,71.02 L1.68,68.92 L1.2,66.79 L0.8,64.64 L0.49,62.45 L0.27,60.24 L0.13,58 L0.08,55.74 L0.13,53.48 L0.27,51.24 L0.49,49.03 L0.8,46.85 L1.2,44.69 L1.68,42.56 L2.24,40.47 L2.89,38.41 L3.61,36.38 L4.4,34.39 L5.27,32.44 L6.22,30.53 L7.23,28.67 L8.32,26.85 L9.47,25.07 L10.69,23.34 L11.97,21.66 L13.31,20.04 L14.71,18.46 L16.18,16.94 L17.7,15.48 L19.27,14.08 L20.9,12.74 L22.58,11.46 L24.3,10.24 L26.08,9.09 L27.9,8 L29.77,6.99 L31.68,6.04 L33.63,5.17 L35.61,4.38 L37.64,3.66 L39.7,3.01 L41.8,2.45 L43.92,1.97 L46.08,1.57 L48.26,1.26 L50.47,1.04 L52.71,0.9 L54.97,0.85 L57.23,0.9 L59.46,1.04 Z M52.19,21.93 L50.83,22.07 L49.48,22.26 L48.15,22.51 L46.83,22.8 L45.54,23.15 L44.27,23.55 L43.01,23.99 L41.79,24.49 L40.58,25.03 L39.4,25.61 L38.25,26.24 L37.12,26.91 L36.03,27.62 L34.96,28.37 L33.92,29.16 L32.92,29.99 L31.94,30.86 L31,31.76 L30.1,32.7 L29.23,33.68 L28.4,34.68 L27.61,35.72 L26.86,36.79 L26.15,37.88 L25.48,39.01 L24.85,40.16 L24.26,41.34 L23.73,42.55 L23.23,43.78 L22.79,45.03 L22.39,46.3 L22.04,47.6 L21.75,48.91 L21.5,50.24 L21.31,51.59 L21.17,52.96 L21.08,54.34 L21.05,55.74 L21.08,57.13 L21.17,58.52 L21.31,59.88 L21.5,61.23 L21.75,62.57 L22.04,63.88 L22.39,65.18 L22.79,66.45 L23.23,67.7 L23.73,68.93 L24.27,70.14 L24.85,71.32 L25.48,72.47 L26.15,73.6 L26.86,74.69 L27.61,75.76 L28.4,76.8 L29.23,77.8 L30.1,78.78 L31.01,79.72 L31.94,80.62 L32.92,81.49 L33.92,82.32 L34.96,83.11 L36.03,83.86 L37.13,84.57 L38.25,85.24 L39.4,85.87 L40.58,86.45 L41.79,86.99 L43.02,87.48 L44.27,87.93 L45.54,88.33 L46.83,88.67 L48.15,88.97 L49.48,89.22 L50.83,89.41 L52.19,89.55 L53.57,89.63 L54.97,89.66 L56.36,89.63 L57.74,89.55 L59.11,89.41 L60.46,89.22 L61.79,88.97 L63.1,88.67 L64.39,88.33 L65.67,87.93 L66.92,87.48 L68.15,86.99 L69.35,86.45 L70.53,85.87 L71.68,85.24 L72.81,84.57 L73.91,83.86 L74.97,83.11 L76.01,82.32 L77.02,81.49 L77.99,80.62 L78.93,79.72 L79.83,78.78 L80.7,77.8 L81.53,76.8 L82.32,75.76 L83.07,74.69 L83.78,73.6 L84.45,72.47 L85.08,71.32 L85.67,70.14 L86.21,68.93 L86.7,67.7 L87.14,66.45 L87.54,65.18 L87.89,63.88 L88.19,62.57 L88.43,61.23 L88.63,59.88 L88.77,58.52 L88.85,57.13 L88.88,55.74 L88.85,54.34 L88.77,52.96 L88.63,51.59 L88.43,50.24 L88.19,48.91 L87.89,47.59 L87.54,46.3 L87.15,45.03 L86.7,43.77 L86.21,42.55 L85.67,41.34 L85.08,40.16 L84.46,39.01 L83.79,37.88 L83.07,36.78 L82.32,35.72 L81.53,34.68 L80.7,33.67 L79.83,32.7 L78.93,31.76 L77.99,30.86 L77.02,29.99 L76.01,29.16 L74.97,28.37 L73.91,27.62 L72.81,26.91 L71.68,26.24 L70.53,25.61 L69.35,25.02 L68.15,24.49 L66.92,23.99 L65.67,23.55 L64.4,23.15 L63.1,22.8 L61.79,22.51 L60.46,22.26 L59.11,22.07 L57.74,21.93 L56.36,21.84 L54.97,21.82 L53.57,21.84 L52.19,21.93 Z" id="a1RbC3Va1v"></path>
                    </g>
                    <g id="a1RbC3Va1v-link" fill-opacity="0" stroke="#5A7C9C" stroke-opacity="0">
                        <path d="M59.46,1.04 L61.67,1.26 L63.86,1.57 L66.01,1.97 L68.14,2.45 L70.23,3.01 L72.29,3.66 L74.32,4.38 L76.31,5.17 L78.26,6.04 L80.16,6.99 L82.03,8 L83.85,9.09 L85.63,10.24 L87.36,11.45 L89.03,12.74 L90.66,14.08 L92.23,15.48 L93.75,16.94 L95.22,18.46 L96.62,20.04 L97.96,21.66 L99.24,23.34 L100.46,25.07 L101.61,26.84 L102.7,28.67 L103.71,30.53 L104.66,32.44 L105.53,34.39 L106.32,36.38 L107.05,38.41 L107.69,40.47 L108.25,42.56 L108.73,44.69 L109.13,46.85 L109.44,49.03 L109.67,51.24 L109.8,53.48 L109.85,55.74 L109.8,58 L109.67,60.24 L109.44,62.45 L109.13,64.64 L108.73,66.79 L108.25,68.92 L107.69,71.02 L107.05,73.08 L106.33,75.1 L105.53,77.09 L104.66,79.04 L103.72,80.95 L102.7,82.82 L101.62,84.64 L100.46,86.42 L99.25,88.15 L97.97,89.83 L96.62,91.46 L95.22,93.03 L93.76,94.55 L92.24,96.02 L90.66,97.42 L89.04,98.76 L87.36,100.05 L85.63,101.26 L83.86,102.42 L82.03,103.5 L80.17,104.52 L78.26,105.46 L76.31,106.33 L74.32,107.13 L72.3,107.85 L70.24,108.5 L68.14,109.06 L66.02,109.54 L63.86,109.94 L61.67,110.25 L59.46,110.48 L57.23,110.61 L54.97,110.66 L52.71,110.61 L50.47,110.48 L48.26,110.25 L46.08,109.94 L43.92,109.54 L41.8,109.06 L39.7,108.5 L37.64,107.85 L35.61,107.13 L33.63,106.33 L31.68,105.46 L29.77,104.52 L27.9,103.5 L26.08,102.42 L24.3,101.26 L22.58,100.05 L20.9,98.76 L19.27,97.42 L17.7,96.02 L16.18,94.55 L14.71,93.03 L13.31,91.46 L11.97,89.83 L10.69,88.15 L9.47,86.42 L8.32,84.64 L7.23,82.82 L6.22,80.95 L5.27,79.04 L4.4,77.09 L3.61,75.1 L2.89,73.08 L2.24,71.02 L1.68,68.92 L1.2,66.79 L0.8,64.64 L0.49,62.45 L0.27,60.24 L0.13,58 L0.08,55.74 L0.13,53.48 L0.27,51.24 L0.49,49.03 L0.8,46.85 L1.2,44.69 L1.68,42.56 L2.24,40.47 L2.89,38.41 L3.61,36.38 L4.4,34.39 L5.27,32.44 L6.22,30.53 L7.23,28.67 L8.32,26.85 L9.47,25.07 L10.69,23.34 L11.97,21.66 L13.31,20.04 L14.71,18.46 L16.18,16.94 L17.7,15.48 L19.27,14.08 L20.9,12.74 L22.58,11.46 L24.3,10.24 L26.08,9.09 L27.9,8 L29.77,6.99 L31.68,6.04 L33.63,5.17 L35.61,4.38 L37.64,3.66 L39.7,3.01 L41.8,2.45 L43.92,1.97 L46.08,1.57 L48.26,1.26 L50.47,1.04 L52.71,0.9 L54.97,0.85 L57.23,0.9 L59.46,1.04 Z M52.19,21.93 L50.83,22.07 L49.48,22.26 L48.15,22.51 L46.83,22.8 L45.54,23.15 L44.27,23.55 L43.01,23.99 L41.79,24.49 L40.58,25.03 L39.4,25.61 L38.25,26.24 L37.12,26.91 L36.03,27.62 L34.96,28.37 L33.92,29.16 L32.92,29.99 L31.94,30.86 L31,31.76 L30.1,32.7 L29.23,33.68 L28.4,34.68 L27.61,35.72 L26.86,36.79 L26.15,37.88 L25.48,39.01 L24.85,40.16 L24.26,41.34 L23.73,42.55 L23.23,43.78 L22.79,45.03 L22.39,46.3 L22.04,47.6 L21.75,48.91 L21.5,50.24 L21.31,51.59 L21.17,52.96 L21.08,54.34 L21.05,55.74 L21.08,57.13 L21.17,58.52 L21.31,59.88 L21.5,61.23 L21.75,62.57 L22.04,63.88 L22.39,65.18 L22.79,66.45 L23.23,67.7 L23.73,68.93 L24.27,70.14 L24.85,71.32 L25.48,72.47 L26.15,73.6 L26.86,74.69 L27.61,75.76 L28.4,76.8 L29.23,77.8 L30.1,78.78 L31.01,79.72 L31.94,80.62 L32.92,81.49 L33.92,82.32 L34.96,83.11 L36.03,83.86 L37.13,84.57 L38.25,85.24 L39.4,85.87 L40.58,86.45 L41.79,86.99 L43.02,87.48 L44.27,87.93 L45.54,88.33 L46.83,88.67 L48.15,88.97 L49.48,89.22 L50.83,89.41 L52.19,89.55 L53.57,89.63 L54.97,89.66 L56.36,89.63 L57.74,89.55 L59.11,89.41 L60.46,89.22 L61.79,88.97 L63.1,88.67 L64.39,88.33 L65.67,87.93 L66.92,87.48 L68.15,86.99 L69.35,86.45 L70.53,85.87 L71.68,85.24 L72.81,84.57 L73.91,83.86 L74.97,83.11 L76.01,82.32 L77.02,81.49 L77.99,80.62 L78.93,79.72 L79.83,78.78 L80.7,77.8 L81.53,76.8 L82.32,75.76 L83.07,74.69 L83.78,73.6 L84.45,72.47 L85.08,71.32 L85.67,70.14 L86.21,68.93 L86.7,67.7 L87.14,66.45 L87.54,65.18 L87.89,63.88 L88.19,62.57 L88.43,61.23 L88.63,59.88 L88.77,58.52 L88.85,57.13 L88.88,55.74 L88.85,54.34 L88.77,52.96 L88.63,51.59 L88.43,50.24 L88.19,48.91 L87.89,47.59 L87.54,46.3 L87.15,45.03 L86.7,43.77 L86.21,42.55 L85.67,41.34 L85.08,40.16 L84.46,39.01 L83.79,37.88 L83.07,36.78 L82.32,35.72 L81.53,34.68 L80.7,33.67 L79.83,32.7 L78.93,31.76 L77.99,30.86 L77.02,29.99 L76.01,29.16 L74.97,28.37 L73.91,27.62 L72.81,26.91 L71.68,26.24 L70.53,25.61 L69.35,25.02 L68.15,24.49 L66.92,23.99 L65.67,23.55 L64.4,23.15 L63.1,22.8 L61.79,22.51 L60.46,22.26 L59.11,22.07 L57.74,21.93 L56.36,21.84 L54.97,21.82 L53.57,21.84 L52.19,21.93 Z" id="a1RbC3Va1v"></path>
                    </g>
                </g>
                <g fill-rule="nonzero">
                    <g id="jdVYtsuz-link">
                        <path d="M151.98,0.59 L158.16,1.17 L164.17,1.98 L170,3 L175.65,4.23 L181.12,5.67 L186.42,7.3 L191.54,9.12 L196.49,11.12 L201.27,13.3 L205.87,15.65 L210.31,18.17 L214.57,20.84 L218.66,23.67 L222.58,26.63 L226.33,29.74 L229.92,32.98 L233.34,36.34 L236.59,39.82 L239.67,43.42 L242.59,47.12 L245.35,50.92 L247.94,54.81 L250.37,58.79 L252.64,62.85 L254.74,66.98 L256.69,71.18 L258.47,75.44 L260.1,79.75 L261.57,84.11 L262.88,88.51 L264.03,92.95 L265.03,97.41 L265.87,101.9 L266.55,106.4 L267.09,110.91 L267.47,115.42 L267.69,119.93 L267.77,124.43 L267.74,127.41 L267.66,130.33 L267.53,133.22 L267.34,136.06 L267.09,138.86 L266.78,141.63 L266.41,144.36 L265.97,147.06 L265.48,149.73 L264.91,152.38 L264.28,155 L263.59,157.6 L262.82,160.19 L261.98,162.76 L261.07,165.32 L260.08,167.87 L259.02,170.42 L257.88,172.96 L256.67,175.5 L255.37,178.05 L253.99,180.59 L252.53,183.15 L250.99,185.72 L249.35,188.3 L247.64,190.89 L245.83,193.51 L243.93,196.15 L241.94,198.81 L239.86,201.5 L237.68,204.21 L235.41,206.96 L233.04,209.75 L230.57,212.58 L228,215.44 L225.33,218.35 L222.55,221.31 L219.67,224.31 L216.68,227.37 L213.59,230.48 L210.39,233.65 L208.09,235.91 L205.88,238.1 L203.76,240.22 L201.72,242.28 L199.76,244.28 L197.88,246.23 L196.08,248.12 L194.36,249.97 L192.71,251.78 L191.14,253.54 L189.64,255.27 L188.21,256.96 L186.85,258.62 L185.56,260.26 L184.34,261.87 L183.18,263.46 L182.09,265.03 L181.05,266.59 L180.08,268.13 L179.17,269.68 L178.32,271.21 L177.52,272.75 L176.78,274.29 L176.09,275.84 L175.46,277.39 L174.87,278.96 L174.34,280.55 L173.85,282.16 L173.41,283.79 L173.01,285.44 L172.66,287.13 L172.35,288.85 L172.07,290.61 L171.84,292.41 L171.65,294.25 L171.49,296.14 L171.37,298.08 L171.28,300.07 L171.22,302.12 L171.19,304.23 L171.17,305.02 L171.12,305.8 L171.04,306.57 L170.93,307.34 L170.78,308.09 L170.61,308.83 L170.41,309.56 L170.18,310.28 L169.93,310.99 L169.65,311.68 L169.34,312.36 L169.01,313.03 L168.65,313.68 L168.27,314.32 L167.86,314.94 L167.43,315.54 L166.98,316.12 L166.51,316.69 L166.02,317.24 L165.51,317.77 L164.97,318.28 L164.42,318.77 L163.85,319.24 L163.27,319.69 L162.66,320.11 L162.04,320.51 L161.4,320.89 L160.75,321.25 L160.08,321.58 L159.4,321.88 L158.7,322.16 L158,322.41 L157.28,322.63 L156.55,322.83 L155.8,323 L155.05,323.14 L154.29,323.25 L153.52,323.32 L152.74,323.37 L151.95,323.39 L104.61,323.39 L103.81,323.37 L103.03,323.32 L102.25,323.24 L101.49,323.14 L100.73,323 L99.99,322.83 L99.25,322.63 L98.53,322.4 L97.82,322.15 L97.12,321.87 L96.44,321.57 L95.77,321.23 L95.11,320.88 L94.47,320.5 L93.85,320.09 L93.24,319.66 L92.65,319.21 L92.08,318.74 L91.53,318.25 L91,317.74 L90.49,317.2 L89.99,316.65 L89.52,316.08 L89.07,315.49 L88.64,314.88 L88.24,314.26 L87.86,313.62 L87.5,312.96 L87.17,312.29 L86.87,311.6 L86.59,310.9 L86.33,310.19 L86.11,309.47 L85.91,308.73 L85.74,307.98 L85.6,307.22 L85.49,306.46 L85.41,305.68 L85.37,304.89 L85.35,304.1 L85.35,283.21 L85.37,280.56 L85.43,277.95 L85.53,275.38 L85.67,272.85 L85.85,270.35 L86.08,267.89 L86.34,265.46 L86.65,263.07 L87.01,260.7 L87.4,258.37 L87.85,256.07 L88.33,253.79 L88.87,251.54 L89.45,249.31 L90.07,247.11 L90.75,244.93 L91.47,242.77 L92.24,240.63 L93.06,238.51 L93.92,236.4 L94.84,234.32 L95.81,232.24 L96.83,230.18 L97.91,228.13 L99.03,226.09 L100.21,224.07 L101.44,222.05 L102.73,220.03 L104.07,218.03 L105.46,216.02 L106.91,214.02 L108.42,212.02 L109.98,210.02 L111.6,208.02 L113.28,206.02 L115.01,204.02 L116.81,202.01 L118.66,199.99 L120.58,197.97 L122.55,195.94 L122.65,195.84 L122.74,195.74 L122.84,195.64 L122.93,195.54 L123.03,195.44 L123.13,195.35 L123.23,195.25 L123.32,195.15 L123.42,195.05 L123.52,194.95 L123.62,194.85 L123.72,194.75 L123.82,194.65 L123.92,194.55 L124.02,194.45 L124.12,194.35 L124.23,194.24 L124.33,194.14 L124.43,194.04 L124.53,193.94 L124.64,193.84 L124.74,193.74 L124.85,193.64 L124.95,193.54 L125.06,193.44 L125.16,193.34 L125.27,193.24 L125.38,193.14 L125.49,193.04 L125.59,192.94 L125.7,192.84 L125.81,192.74 L125.92,192.64 L126.03,192.54 L126.14,192.45 L126.25,192.35 L126.37,192.25 L126.48,192.15 L126.59,192.05 L126.7,191.96 L129.06,189.53 L131.34,187.18 L133.55,184.89 L135.69,182.66 L137.76,180.49 L139.77,178.39 L141.71,176.34 L143.58,174.34 L145.39,172.4 L147.13,170.51 L148.8,168.67 L150.41,166.87 L151.96,165.12 L153.44,163.4 L154.86,161.73 L156.22,160.1 L157.52,158.49 L158.75,156.92 L159.92,155.39 L161.04,153.87 L162.09,152.39 L163.09,150.93 L164.02,149.49 L164.9,148.07 L165.72,146.66 L166.49,145.27 L167.19,143.9 L167.84,142.53 L168.44,141.17 L168.98,139.82 L169.47,138.46 L169.9,137.12 L170.28,135.77 L170.61,134.41 L170.89,133.05 L171.11,131.69 L171.29,130.31 L171.41,128.92 L171.48,127.52 L171.51,126.1 L171.47,124.44 L171.37,122.85 L171.19,121.32 L170.95,119.86 L170.64,118.46 L170.27,117.12 L169.84,115.84 L169.35,114.61 L168.81,113.45 L168.21,112.33 L167.56,111.28 L166.86,110.27 L166.11,109.32 L165.31,108.42 L164.48,107.57 L163.6,106.77 L162.68,106.02 L161.73,105.31 L160.74,104.64 L159.71,104.02 L158.66,103.44 L157.58,102.91 L156.47,102.41 L155.34,101.95 L154.19,101.53 L153.01,101.14 L151.82,100.79 L150.61,100.47 L149.39,100.19 L148.16,99.93 L146.92,99.71 L145.67,99.52 L144.41,99.35 L143.15,99.21 L141.89,99.09 L140.64,99 L139.38,98.93 L138.13,98.88 L136.89,98.85 L135.66,98.85 L134.34,98.86 L133.01,98.89 L131.69,98.94 L130.38,99.03 L129.07,99.14 L127.76,99.28 L126.46,99.46 L125.16,99.67 L123.88,99.93 L122.6,100.22 L121.33,100.56 L120.07,100.95 L118.83,101.39 L117.59,101.88 L116.37,102.42 L115.16,103.02 L113.96,103.68 L112.79,104.4 L111.62,105.19 L110.48,106.04 L109.35,106.97 L108.24,107.96 L107.15,109.03 L106.08,110.18 L105.03,111.41 L104,112.71 L103,114.11 L102.02,115.59 L101.06,117.16 L100.13,118.82 L99.23,120.58 L98.35,122.44 L97.5,124.39 L96.68,126.45 L95.89,128.61 L95.13,130.88 L94.4,133.26 L93.71,135.75 L93.05,138.36 L92.42,141.09 L92.26,141.75 L92.08,142.41 L91.88,143.05 L91.66,143.68 L91.42,144.3 L91.16,144.91 L90.88,145.51 L90.59,146.1 L90.27,146.67 L89.94,147.23 L89.59,147.77 L89.22,148.31 L88.83,148.82 L88.43,149.33 L88.01,149.82 L87.58,150.29 L87.13,150.75 L86.67,151.19 L86.19,151.62 L85.7,152.03 L85.19,152.42 L84.67,152.79 L84.14,153.15 L83.6,153.49 L83.04,153.82 L82.48,154.12 L81.9,154.41 L81.31,154.67 L80.71,154.92 L80.1,155.15 L79.49,155.35 L78.86,155.54 L78.23,155.71 L77.58,155.85 L76.93,155.98 L76.27,156.08 L75.61,156.16 L74.94,156.21 L74.26,156.25 L73.57,156.26 L28.26,156.26 L27.71,156.26 L27.15,156.27 L26.58,156.27 L26.01,156.28 L25.42,156.29 L24.83,156.3 L24.23,156.31 L23.63,156.31 L23.02,156.32 L22.41,156.32 L21.79,156.32 L21.17,156.31 L20.55,156.3 L19.92,156.28 L19.3,156.26 L18.67,156.23 L18.05,156.19 L17.43,156.14 L16.81,156.08 L16.19,156.02 L15.57,155.94 L14.96,155.85 L14.36,155.75 L13.75,155.63 L13.16,155.5 L12.57,155.36 L11.99,155.21 L11.41,155.03 L10.85,154.84 L10.29,154.64 L9.75,154.41 L9.21,154.17 L8.69,153.91 L8.18,153.62 L7.68,153.32 L7.19,153 L6.72,152.65 L6.27,152.28 L5.83,151.89 L5.4,151.47 L5.28,151.34 L5.16,151.21 L5.04,151.08 L4.92,150.95 L4.81,150.81 L4.69,150.67 L4.58,150.53 L4.47,150.39 L4.36,150.25 L4.25,150.1 L4.14,149.96 L4.04,149.81 L3.93,149.66 L3.83,149.51 L3.73,149.35 L3.63,149.2 L3.53,149.04 L3.43,148.88 L3.34,148.72 L3.24,148.55 L3.15,148.39 L3.06,148.22 L2.97,148.05 L2.88,147.88 L2.79,147.71 L2.71,147.54 L2.62,147.36 L2.54,147.18 L2.46,147 L2.38,146.82 L2.3,146.64 L2.23,146.46 L2.15,146.27 L2.08,146.08 L2,145.89 L1.93,145.7 L1.86,145.51 L1.8,145.31 L1.73,145.11 L1.66,144.91 L1.64,144.84 L1.62,144.76 L1.59,144.69 L1.57,144.61 L1.55,144.54 L1.52,144.46 L1.5,144.39 L1.48,144.31 L1.46,144.23 L1.43,144.16 L1.41,144.08 L1.39,144 L1.37,143.93 L1.35,143.85 L1.33,143.78 L1.31,143.7 L1.29,143.62 L1.27,143.54 L1.25,143.47 L1.23,143.39 L1.22,143.31 L1.2,143.24 L1.18,143.16 L1.16,143.08 L1.14,143 L1.13,142.93 L1.11,142.85 L1.09,142.77 L1.08,142.69 L1.06,142.61 L1.04,142.54 L1.03,142.46 L1.01,142.38 L1,142.3 L0.98,142.22 L0.97,142.14 L0.95,142.06 L0.94,141.99 L0.92,141.91 L0.91,141.83 L0.83,141.4 L0.76,140.97 L0.7,140.53 L0.65,140.1 L0.6,139.66 L0.55,139.22 L0.51,138.77 L0.48,138.33 L0.45,137.88 L0.42,137.43 L0.41,136.98 L0.39,136.52 L0.38,136.07 L0.38,135.62 L0.37,135.16 L0.38,134.71 L0.38,134.25 L0.39,133.79 L0.41,133.34 L0.42,132.88 L0.44,132.43 L0.47,131.97 L0.49,131.52 L0.52,131.07 L0.56,130.61 L0.59,130.16 L0.63,129.72 L0.67,129.27 L0.71,128.82 L0.75,128.38 L0.8,127.94 L0.84,127.5 L0.89,127.07 L0.94,126.64 L0.99,126.21 L1.04,125.78 L1.09,125.36 L1.15,124.94 L1.2,124.53 L1.25,124.12 L1.42,122.86 L1.6,121.59 L1.78,120.31 L1.98,119.03 L2.19,117.73 L2.41,116.43 L2.64,115.12 L2.88,113.79 L3.14,112.47 L3.4,111.13 L3.69,109.78 L3.98,108.43 L4.29,107.06 L4.62,105.69 L4.96,104.31 L5.32,102.93 L5.7,101.53 L6.09,100.12 L6.5,98.71 L6.93,97.29 L7.37,95.86 L7.84,94.42 L8.32,92.97 L8.83,91.52 L9.36,90.06 L9.9,88.59 L10.47,87.11 L11.06,85.62 L11.68,84.12 L12.31,82.62 L12.97,81.11 L13.66,79.59 L14.36,78.06 L15.1,76.52 L15.86,74.98 L16.64,73.43 L17.45,71.87 L18.29,70.3 L19.16,68.73 L20.05,67.14 L22.56,62.86 L25.15,58.77 L27.81,54.85 L30.55,51.1 L33.36,47.53 L36.22,44.12 L39.15,40.88 L42.14,37.79 L45.17,34.86 L48.24,32.08 L51.36,29.45 L54.52,26.96 L57.7,24.61 L60.92,22.4 L64.15,20.32 L67.4,18.37 L70.67,16.54 L73.95,14.84 L77.23,13.25 L80.51,11.77 L83.78,10.41 L87.05,9.14 L90.3,7.98 L93.53,6.92 L96.74,5.96 L99.93,5.08 L103.08,4.29 L106.19,3.58 L109.27,2.95 L112.3,2.39 L115.27,1.91 L118.2,1.49 L121.06,1.14 L123.86,0.84 L126.6,0.61 L129.25,0.42 L131.84,0.28 L134.34,0.19 L136.75,0.13 L139.07,0.12 L145.62,0.24 L151.98,0.59 Z M135.2,25.37 L133.15,25.45 L131.04,25.56 L128.86,25.71 L126.62,25.9 L124.33,26.14 L121.99,26.43 L119.6,26.77 L117.16,27.16 L114.68,27.61 L112.17,28.12 L109.62,28.69 L107.05,29.33 L104.44,30.04 L101.82,30.82 L99.18,31.68 L96.52,32.62 L93.85,33.64 L91.18,34.75 L88.5,35.95 L85.82,37.23 L83.15,38.61 L80.48,40.09 L77.82,41.68 L75.18,43.36 L72.56,45.15 L69.97,47.06 L67.39,49.07 L64.85,51.2 L62.35,53.46 L59.88,55.83 L57.45,58.33 L55.06,60.96 L52.73,63.73 L50.45,66.62 L48.22,69.66 L46.05,72.84 L43.95,76.16 L41.92,79.63 L41.11,81.05 L40.34,82.46 L39.59,83.87 L38.87,85.27 L38.17,86.66 L37.5,88.04 L36.85,89.41 L36.23,90.78 L35.62,92.14 L35.05,93.49 L34.49,94.84 L33.96,96.17 L33.45,97.5 L32.95,98.83 L32.48,100.14 L32.03,101.45 L31.6,102.75 L31.19,104.05 L30.79,105.34 L30.41,106.62 L30.05,107.9 L29.71,109.17 L29.38,110.43 L29.07,111.69 L28.77,112.94 L28.49,114.18 L28.22,115.42 L27.97,116.66 L27.73,117.89 L27.5,119.11 L27.28,120.33 L27.08,121.54 L26.88,122.75 L26.7,123.95 L26.53,125.14 L26.36,126.33 L26.21,127.52 L26.06,128.7 L25.92,129.88 L25.79,131.05 L69.1,131.05 L69.85,128.24 L70.65,125.49 L71.5,122.82 L72.39,120.21 L73.34,117.68 L74.32,115.22 L75.36,112.82 L76.44,110.5 L77.57,108.24 L78.75,106.06 L79.97,103.94 L81.24,101.9 L82.55,99.93 L83.92,98.03 L85.33,96.19 L86.78,94.43 L88.29,92.74 L89.84,91.13 L91.43,89.58 L93.07,88.1 L94.76,86.7 L96.5,85.36 L98.28,84.1 L100.11,82.91 L101.99,81.79 L103.91,80.74 L105.87,79.76 L107.89,78.86 L109.95,78.03 L112.06,77.27 L114.21,76.58 L116.41,75.96 L118.65,75.42 L120.94,74.94 L123.28,74.54 L125.67,74.22 L128.09,73.96 L130.57,73.78 L133.09,73.67 L135.66,73.63 L138.42,73.67 L141.12,73.79 L143.78,73.98 L146.38,74.24 L148.93,74.58 L151.42,74.99 L153.86,75.48 L156.25,76.03 L158.57,76.66 L160.84,77.35 L163.05,78.11 L165.2,78.94 L167.28,79.84 L169.31,80.8 L171.27,81.83 L173.16,82.92 L174.99,84.08 L176.76,85.3 L178.45,86.57 L180.08,87.91 L181.64,89.31 L183.13,90.77 L184.54,92.29 L185.89,93.86 L187.16,95.49 L188.35,97.18 L189.47,98.92 L190.52,100.71 L191.48,102.55 L192.37,104.45 L193.18,106.4 L193.9,108.4 L194.55,110.45 L195.11,112.54 L195.59,114.68 L195.98,116.88 L196.29,119.11 L196.51,121.39 L196.64,123.72 L196.69,126.08 L196.65,128.32 L196.54,130.52 L196.36,132.69 L196.11,134.83 L195.78,136.94 L195.39,139.02 L194.92,141.08 L194.39,143.11 L193.78,145.13 L193.11,147.13 L192.38,149.11 L191.57,151.08 L190.7,153.03 L189.76,154.98 L188.76,156.92 L187.7,158.86 L186.57,160.79 L185.38,162.72 L184.12,164.65 L182.81,166.59 L181.43,168.53 L179.99,170.48 L178.5,172.45 L176.94,174.42 L175.33,176.41 L173.66,178.41 L171.93,180.44 L170.14,182.48 L168.3,184.55 L166.4,186.64 L164.45,188.76 L162.44,190.92 L160.39,193.1 L158.27,195.32 L156.11,197.57 L153.89,199.86 L151.63,202.19 L149.31,204.57 L146.94,206.99 L144.53,209.46 L144.24,209.74 L144.21,209.77 L144.18,209.81 L144.14,209.85 L144.09,209.89 L144.04,209.94 L143.99,209.99 L143.93,210.05 L143.87,210.12 L143.8,210.18 L143.73,210.25 L143.66,210.33 L143.58,210.41 L143.5,210.49 L143.41,210.58 L143.33,210.67 L143.24,210.76 L143.14,210.86 L143.05,210.96 L142.95,211.06 L142.85,211.16 L142.75,211.27 L142.64,211.37 L142.53,211.48 L142.43,211.6 L142.32,211.71 L142.21,211.82 L142.09,211.94 L141.98,212.06 L141.86,212.18 L141.75,212.3 L141.63,212.42 L141.52,212.54 L141.4,212.66 L141.28,212.78 L141.17,212.9 L141.05,213.02 L140.93,213.14 L140.82,213.26 L140.7,213.38 L140.59,213.5 L138.95,215.18 L137.37,216.85 L135.84,218.5 L134.36,220.15 L132.93,221.78 L131.55,223.4 L130.22,225.02 L128.94,226.63 L127.71,228.23 L126.53,229.83 L125.4,231.43 L124.31,233.03 L123.27,234.63 L122.28,236.23 L121.33,237.83 L120.42,239.44 L119.56,241.06 L118.75,242.68 L117.97,244.31 L117.24,245.95 L116.55,247.61 L115.9,249.28 L115.29,250.96 L114.72,252.66 L114.19,254.38 L113.7,256.11 L113.25,257.87 L112.83,259.65 L112.45,261.45 L112.11,263.27 L111.8,265.13 L111.53,267.01 L111.29,268.91 L111.08,270.85 L110.91,272.82 L110.77,274.83 L110.67,276.87 L110.59,278.94 L110.55,281.05 L110.53,283.2 L110.53,298.2 L146.33,298.2 L146.48,295.63 L146.67,293.12 L146.91,290.66 L147.2,288.27 L147.54,285.92 L147.93,283.62 L148.37,281.37 L148.85,279.17 L149.39,277 L149.97,274.88 L150.61,272.79 L151.3,270.73 L152.04,268.71 L152.83,266.71 L153.67,264.74 L154.57,262.79 L155.52,260.86 L156.52,258.94 L157.58,257.04 L158.69,255.15 L159.85,253.28 L161.07,251.4 L162.34,249.53 L163.67,247.67 L165.05,245.79 L166.49,243.92 L167.99,242.04 L169.54,240.14 L171.15,238.24 L172.82,236.32 L174.55,234.38 L176.33,232.42 L178.17,230.43 L180.08,228.42 L182.04,226.38 L184.06,224.31 L186.14,222.2 L188.28,220.06 L190.48,217.88 L192.74,215.65 L195.59,212.84 L198.34,210.09 L200.98,207.4 L203.53,204.76 L205.98,202.18 L208.34,199.66 L210.6,197.18 L212.77,194.74 L214.85,192.35 L216.84,190 L218.74,187.69 L220.56,185.41 L222.29,183.17 L223.94,180.95 L225.5,178.76 L226.99,176.6 L228.4,174.45 L229.73,172.32 L230.98,170.21 L232.16,168.11 L233.27,166.02 L234.31,163.94 L235.28,161.86 L236.18,159.78 L237.01,157.7 L237.78,155.62 L238.49,153.53 L239.13,151.43 L239.71,149.31 L240.24,147.18 L240.71,145.04 L241.12,142.87 L241.48,140.67 L241.78,138.45 L242.03,136.21 L242.24,133.92 L242.39,131.61 L242.5,129.25 L242.57,126.86 L242.59,124.42 L242.53,120.83 L242.35,117.24 L242.04,113.64 L241.61,110.05 L241.06,106.46 L240.38,102.88 L239.58,99.32 L238.65,95.79 L237.6,92.28 L236.42,88.8 L235.11,85.36 L233.67,81.97 L232.11,78.62 L230.41,75.32 L228.59,72.09 L226.64,68.92 L224.55,65.81 L222.33,62.78 L219.98,59.84 L217.5,56.97 L214.89,54.19 L212.14,51.51 L209.26,48.93 L206.24,46.46 L203.08,44.09 L199.79,41.84 L196.36,39.71 L192.8,37.7 L189.1,35.83 L185.25,34.09 L181.27,32.49 L177.15,31.04 L172.89,29.74 L168.49,28.6 L163.94,27.62 L159.26,26.8 L154.43,26.16 L149.45,25.7 L144.34,25.41 L139.07,25.32 L137.17,25.33 L135.2,25.37 Z" id="jdVYtsuz"></path>
                    </g>
                    <g id="jdVYtsuz-link" fill-opacity="0" stroke="#5A7C9C" stroke-opacity="0">
                        <path d="M151.98,0.59 L158.16,1.17 L164.17,1.98 L170,3 L175.65,4.23 L181.12,5.67 L186.42,7.3 L191.54,9.12 L196.49,11.12 L201.27,13.3 L205.87,15.65 L210.31,18.17 L214.57,20.84 L218.66,23.67 L222.58,26.63 L226.33,29.74 L229.92,32.98 L233.34,36.34 L236.59,39.82 L239.67,43.42 L242.59,47.12 L245.35,50.92 L247.94,54.81 L250.37,58.79 L252.64,62.85 L254.74,66.98 L256.69,71.18 L258.47,75.44 L260.1,79.75 L261.57,84.11 L262.88,88.51 L264.03,92.95 L265.03,97.41 L265.87,101.9 L266.55,106.4 L267.09,110.91 L267.47,115.42 L267.69,119.93 L267.77,124.43 L267.74,127.41 L267.66,130.33 L267.53,133.22 L267.34,136.06 L267.09,138.86 L266.78,141.63 L266.41,144.36 L265.97,147.06 L265.48,149.73 L264.91,152.38 L264.28,155 L263.59,157.6 L262.82,160.19 L261.98,162.76 L261.07,165.32 L260.08,167.87 L259.02,170.42 L257.88,172.96 L256.67,175.5 L255.37,178.05 L253.99,180.59 L252.53,183.15 L250.99,185.72 L249.35,188.3 L247.64,190.89 L245.83,193.51 L243.93,196.15 L241.94,198.81 L239.86,201.5 L237.68,204.21 L235.41,206.96 L233.04,209.75 L230.57,212.58 L228,215.44 L225.33,218.35 L222.55,221.31 L219.67,224.31 L216.68,227.37 L213.59,230.48 L210.39,233.65 L208.09,235.91 L205.88,238.1 L203.76,240.22 L201.72,242.28 L199.76,244.28 L197.88,246.23 L196.08,248.12 L194.36,249.97 L192.71,251.78 L191.14,253.54 L189.64,255.27 L188.21,256.96 L186.85,258.62 L185.56,260.26 L184.34,261.87 L183.18,263.46 L182.09,265.03 L181.05,266.59 L180.08,268.13 L179.17,269.68 L178.32,271.21 L177.52,272.75 L176.78,274.29 L176.09,275.84 L175.46,277.39 L174.87,278.96 L174.34,280.55 L173.85,282.16 L173.41,283.79 L173.01,285.44 L172.66,287.13 L172.35,288.85 L172.07,290.61 L171.84,292.41 L171.65,294.25 L171.49,296.14 L171.37,298.08 L171.28,300.07 L171.22,302.12 L171.19,304.23 L171.17,305.02 L171.12,305.8 L171.04,306.57 L170.93,307.34 L170.78,308.09 L170.61,308.83 L170.41,309.56 L170.18,310.28 L169.93,310.99 L169.65,311.68 L169.34,312.36 L169.01,313.03 L168.65,313.68 L168.27,314.32 L167.86,314.94 L167.43,315.54 L166.98,316.12 L166.51,316.69 L166.02,317.24 L165.51,317.77 L164.97,318.28 L164.42,318.77 L163.85,319.24 L163.27,319.69 L162.66,320.11 L162.04,320.51 L161.4,320.89 L160.75,321.25 L160.08,321.58 L159.4,321.88 L158.7,322.16 L158,322.41 L157.28,322.63 L156.55,322.83 L155.8,323 L155.05,323.14 L154.29,323.25 L153.52,323.32 L152.74,323.37 L151.95,323.39 L104.61,323.39 L103.81,323.37 L103.03,323.32 L102.25,323.24 L101.49,323.14 L100.73,323 L99.99,322.83 L99.25,322.63 L98.53,322.4 L97.82,322.15 L97.12,321.87 L96.44,321.57 L95.77,321.23 L95.11,320.88 L94.47,320.5 L93.85,320.09 L93.24,319.66 L92.65,319.21 L92.08,318.74 L91.53,318.25 L91,317.74 L90.49,317.2 L89.99,316.65 L89.52,316.08 L89.07,315.49 L88.64,314.88 L88.24,314.26 L87.86,313.62 L87.5,312.96 L87.17,312.29 L86.87,311.6 L86.59,310.9 L86.33,310.19 L86.11,309.47 L85.91,308.73 L85.74,307.98 L85.6,307.22 L85.49,306.46 L85.41,305.68 L85.37,304.89 L85.35,304.1 L85.35,283.21 L85.37,280.56 L85.43,277.95 L85.53,275.38 L85.67,272.85 L85.85,270.35 L86.08,267.89 L86.34,265.46 L86.65,263.07 L87.01,260.7 L87.4,258.37 L87.85,256.07 L88.33,253.79 L88.87,251.54 L89.45,249.31 L90.07,247.11 L90.75,244.93 L91.47,242.77 L92.24,240.63 L93.06,238.51 L93.92,236.4 L94.84,234.32 L95.81,232.24 L96.83,230.18 L97.91,228.13 L99.03,226.09 L100.21,224.07 L101.44,222.05 L102.73,220.03 L104.07,218.03 L105.46,216.02 L106.91,214.02 L108.42,212.02 L109.98,210.02 L111.6,208.02 L113.28,206.02 L115.01,204.02 L116.81,202.01 L118.66,199.99 L120.58,197.97 L122.55,195.94 L122.65,195.84 L122.74,195.74 L122.84,195.64 L122.93,195.54 L123.03,195.44 L123.13,195.35 L123.23,195.25 L123.32,195.15 L123.42,195.05 L123.52,194.95 L123.62,194.85 L123.72,194.75 L123.82,194.65 L123.92,194.55 L124.02,194.45 L124.12,194.35 L124.23,194.24 L124.33,194.14 L124.43,194.04 L124.53,193.94 L124.64,193.84 L124.74,193.74 L124.85,193.64 L124.95,193.54 L125.06,193.44 L125.16,193.34 L125.27,193.24 L125.38,193.14 L125.49,193.04 L125.59,192.94 L125.7,192.84 L125.81,192.74 L125.92,192.64 L126.03,192.54 L126.14,192.45 L126.25,192.35 L126.37,192.25 L126.48,192.15 L126.59,192.05 L126.7,191.96 L129.06,189.53 L131.34,187.18 L133.55,184.89 L135.69,182.66 L137.76,180.49 L139.77,178.39 L141.71,176.34 L143.58,174.34 L145.39,172.4 L147.13,170.51 L148.8,168.67 L150.41,166.87 L151.96,165.12 L153.44,163.4 L154.86,161.73 L156.22,160.1 L157.52,158.49 L158.75,156.92 L159.92,155.39 L161.04,153.87 L162.09,152.39 L163.09,150.93 L164.02,149.49 L164.9,148.07 L165.72,146.66 L166.49,145.27 L167.19,143.9 L167.84,142.53 L168.44,141.17 L168.98,139.82 L169.47,138.46 L169.9,137.12 L170.28,135.77 L170.61,134.41 L170.89,133.05 L171.11,131.69 L171.29,130.31 L171.41,128.92 L171.48,127.52 L171.51,126.1 L171.47,124.44 L171.37,122.85 L171.19,121.32 L170.95,119.86 L170.64,118.46 L170.27,117.12 L169.84,115.84 L169.35,114.61 L168.81,113.45 L168.21,112.33 L167.56,111.28 L166.86,110.27 L166.11,109.32 L165.31,108.42 L164.48,107.57 L163.6,106.77 L162.68,106.02 L161.73,105.31 L160.74,104.64 L159.71,104.02 L158.66,103.44 L157.58,102.91 L156.47,102.41 L155.34,101.95 L154.19,101.53 L153.01,101.14 L151.82,100.79 L150.61,100.47 L149.39,100.19 L148.16,99.93 L146.92,99.71 L145.67,99.52 L144.41,99.35 L143.15,99.21 L141.89,99.09 L140.64,99 L139.38,98.93 L138.13,98.88 L136.89,98.85 L135.66,98.85 L134.34,98.86 L133.01,98.89 L131.69,98.94 L130.38,99.03 L129.07,99.14 L127.76,99.28 L126.46,99.46 L125.16,99.67 L123.88,99.93 L122.6,100.22 L121.33,100.56 L120.07,100.95 L118.83,101.39 L117.59,101.88 L116.37,102.42 L115.16,103.02 L113.96,103.68 L112.79,104.4 L111.62,105.19 L110.48,106.04 L109.35,106.97 L108.24,107.96 L107.15,109.03 L106.08,110.18 L105.03,111.41 L104,112.71 L103,114.11 L102.02,115.59 L101.06,117.16 L100.13,118.82 L99.23,120.58 L98.35,122.44 L97.5,124.39 L96.68,126.45 L95.89,128.61 L95.13,130.88 L94.4,133.26 L93.71,135.75 L93.05,138.36 L92.42,141.09 L92.26,141.75 L92.08,142.41 L91.88,143.05 L91.66,143.68 L91.42,144.3 L91.16,144.91 L90.88,145.51 L90.59,146.1 L90.27,146.67 L89.94,147.23 L89.59,147.77 L89.22,148.31 L88.83,148.82 L88.43,149.33 L88.01,149.82 L87.58,150.29 L87.13,150.75 L86.67,151.19 L86.19,151.62 L85.7,152.03 L85.19,152.42 L84.67,152.79 L84.14,153.15 L83.6,153.49 L83.04,153.82 L82.48,154.12 L81.9,154.41 L81.31,154.67 L80.71,154.92 L80.1,155.15 L79.49,155.35 L78.86,155.54 L78.23,155.71 L77.58,155.85 L76.93,155.98 L76.27,156.08 L75.61,156.16 L74.94,156.21 L74.26,156.25 L73.57,156.26 L28.26,156.26 L27.71,156.26 L27.15,156.27 L26.58,156.27 L26.01,156.28 L25.42,156.29 L24.83,156.3 L24.23,156.31 L23.63,156.31 L23.02,156.32 L22.41,156.32 L21.79,156.32 L21.17,156.31 L20.55,156.3 L19.92,156.28 L19.3,156.26 L18.67,156.23 L18.05,156.19 L17.43,156.14 L16.81,156.08 L16.19,156.02 L15.57,155.94 L14.96,155.85 L14.36,155.75 L13.75,155.63 L13.16,155.5 L12.57,155.36 L11.99,155.21 L11.41,155.03 L10.85,154.84 L10.29,154.64 L9.75,154.41 L9.21,154.17 L8.69,153.91 L8.18,153.62 L7.68,153.32 L7.19,153 L6.72,152.65 L6.27,152.28 L5.83,151.89 L5.4,151.47 L5.28,151.34 L5.16,151.21 L5.04,151.08 L4.92,150.95 L4.81,150.81 L4.69,150.67 L4.58,150.53 L4.47,150.39 L4.36,150.25 L4.25,150.1 L4.14,149.96 L4.04,149.81 L3.93,149.66 L3.83,149.51 L3.73,149.35 L3.63,149.2 L3.53,149.04 L3.43,148.88 L3.34,148.72 L3.24,148.55 L3.15,148.39 L3.06,148.22 L2.97,148.05 L2.88,147.88 L2.79,147.71 L2.71,147.54 L2.62,147.36 L2.54,147.18 L2.46,147 L2.38,146.82 L2.3,146.64 L2.23,146.46 L2.15,146.27 L2.08,146.08 L2,145.89 L1.93,145.7 L1.86,145.51 L1.8,145.31 L1.73,145.11 L1.66,144.91 L1.64,144.84 L1.62,144.76 L1.59,144.69 L1.57,144.61 L1.55,144.54 L1.52,144.46 L1.5,144.39 L1.48,144.31 L1.46,144.23 L1.43,144.16 L1.41,144.08 L1.39,144 L1.37,143.93 L1.35,143.85 L1.33,143.78 L1.31,143.7 L1.29,143.62 L1.27,143.54 L1.25,143.47 L1.23,143.39 L1.22,143.31 L1.2,143.24 L1.18,143.16 L1.16,143.08 L1.14,143 L1.13,142.93 L1.11,142.85 L1.09,142.77 L1.08,142.69 L1.06,142.61 L1.04,142.54 L1.03,142.46 L1.01,142.38 L1,142.3 L0.98,142.22 L0.97,142.14 L0.95,142.06 L0.94,141.99 L0.92,141.91 L0.91,141.83 L0.83,141.4 L0.76,140.97 L0.7,140.53 L0.65,140.1 L0.6,139.66 L0.55,139.22 L0.51,138.77 L0.48,138.33 L0.45,137.88 L0.42,137.43 L0.41,136.98 L0.39,136.52 L0.38,136.07 L0.38,135.62 L0.37,135.16 L0.38,134.71 L0.38,134.25 L0.39,133.79 L0.41,133.34 L0.42,132.88 L0.44,132.43 L0.47,131.97 L0.49,131.52 L0.52,131.07 L0.56,130.61 L0.59,130.16 L0.63,129.72 L0.67,129.27 L0.71,128.82 L0.75,128.38 L0.8,127.94 L0.84,127.5 L0.89,127.07 L0.94,126.64 L0.99,126.21 L1.04,125.78 L1.09,125.36 L1.15,124.94 L1.2,124.53 L1.25,124.12 L1.42,122.86 L1.6,121.59 L1.78,120.31 L1.98,119.03 L2.19,117.73 L2.41,116.43 L2.64,115.12 L2.88,113.79 L3.14,112.47 L3.4,111.13 L3.69,109.78 L3.98,108.43 L4.29,107.06 L4.62,105.69 L4.96,104.31 L5.32,102.93 L5.7,101.53 L6.09,100.12 L6.5,98.71 L6.93,97.29 L7.37,95.86 L7.84,94.42 L8.32,92.97 L8.83,91.52 L9.36,90.06 L9.9,88.59 L10.47,87.11 L11.06,85.62 L11.68,84.12 L12.31,82.62 L12.97,81.11 L13.66,79.59 L14.36,78.06 L15.1,76.52 L15.86,74.98 L16.64,73.43 L17.45,71.87 L18.29,70.3 L19.16,68.73 L20.05,67.14 L22.56,62.86 L25.15,58.77 L27.81,54.85 L30.55,51.1 L33.36,47.53 L36.22,44.12 L39.15,40.88 L42.14,37.79 L45.17,34.86 L48.24,32.08 L51.36,29.45 L54.52,26.96 L57.7,24.61 L60.92,22.4 L64.15,20.32 L67.4,18.37 L70.67,16.54 L73.95,14.84 L77.23,13.25 L80.51,11.77 L83.78,10.41 L87.05,9.14 L90.3,7.98 L93.53,6.92 L96.74,5.96 L99.93,5.08 L103.08,4.29 L106.19,3.58 L109.27,2.95 L112.3,2.39 L115.27,1.91 L118.2,1.49 L121.06,1.14 L123.86,0.84 L126.6,0.61 L129.25,0.42 L131.84,0.28 L134.34,0.19 L136.75,0.13 L139.07,0.12 L145.62,0.24 L151.98,0.59 Z M135.2,25.37 L133.15,25.45 L131.04,25.56 L128.86,25.71 L126.62,25.9 L124.33,26.14 L121.99,26.43 L119.6,26.77 L117.16,27.16 L114.68,27.61 L112.17,28.12 L109.62,28.69 L107.05,29.33 L104.44,30.04 L101.82,30.82 L99.18,31.68 L96.52,32.62 L93.85,33.64 L91.18,34.75 L88.5,35.95 L85.82,37.23 L83.15,38.61 L80.48,40.09 L77.82,41.68 L75.18,43.36 L72.56,45.15 L69.97,47.06 L67.39,49.07 L64.85,51.2 L62.35,53.46 L59.88,55.83 L57.45,58.33 L55.06,60.96 L52.73,63.73 L50.45,66.62 L48.22,69.66 L46.05,72.84 L43.95,76.16 L41.92,79.63 L41.11,81.05 L40.34,82.46 L39.59,83.87 L38.87,85.27 L38.17,86.66 L37.5,88.04 L36.85,89.41 L36.23,90.78 L35.62,92.14 L35.05,93.49 L34.49,94.84 L33.96,96.17 L33.45,97.5 L32.95,98.83 L32.48,100.14 L32.03,101.45 L31.6,102.75 L31.19,104.05 L30.79,105.34 L30.41,106.62 L30.05,107.9 L29.71,109.17 L29.38,110.43 L29.07,111.69 L28.77,112.94 L28.49,114.18 L28.22,115.42 L27.97,116.66 L27.73,117.89 L27.5,119.11 L27.28,120.33 L27.08,121.54 L26.88,122.75 L26.7,123.95 L26.53,125.14 L26.36,126.33 L26.21,127.52 L26.06,128.7 L25.92,129.88 L25.79,131.05 L69.1,131.05 L69.85,128.24 L70.65,125.49 L71.5,122.82 L72.39,120.21 L73.34,117.68 L74.32,115.22 L75.36,112.82 L76.44,110.5 L77.57,108.24 L78.75,106.06 L79.97,103.94 L81.24,101.9 L82.55,99.93 L83.92,98.03 L85.33,96.19 L86.78,94.43 L88.29,92.74 L89.84,91.13 L91.43,89.58 L93.07,88.1 L94.76,86.7 L96.5,85.36 L98.28,84.1 L100.11,82.91 L101.99,81.79 L103.91,80.74 L105.87,79.76 L107.89,78.86 L109.95,78.03 L112.06,77.27 L114.21,76.58 L116.41,75.96 L118.65,75.42 L120.94,74.94 L123.28,74.54 L125.67,74.22 L128.09,73.96 L130.57,73.78 L133.09,73.67 L135.66,73.63 L138.42,73.67 L141.12,73.79 L143.78,73.98 L146.38,74.24 L148.93,74.58 L151.42,74.99 L153.86,75.48 L156.25,76.03 L158.57,76.66 L160.84,77.35 L163.05,78.11 L165.2,78.94 L167.28,79.84 L169.31,80.8 L171.27,81.83 L173.16,82.92 L174.99,84.08 L176.76,85.3 L178.45,86.57 L180.08,87.91 L181.64,89.31 L183.13,90.77 L184.54,92.29 L185.89,93.86 L187.16,95.49 L188.35,97.18 L189.47,98.92 L190.52,100.71 L191.48,102.55 L192.37,104.45 L193.18,106.4 L193.9,108.4 L194.55,110.45 L195.11,112.54 L195.59,114.68 L195.98,116.88 L196.29,119.11 L196.51,121.39 L196.64,123.72 L196.69,126.08 L196.65,128.32 L196.54,130.52 L196.36,132.69 L196.11,134.83 L195.78,136.94 L195.39,139.02 L194.92,141.08 L194.39,143.11 L193.78,145.13 L193.11,147.13 L192.38,149.11 L191.57,151.08 L190.7,153.03 L189.76,154.98 L188.76,156.92 L187.7,158.86 L186.57,160.79 L185.38,162.72 L184.12,164.65 L182.81,166.59 L181.43,168.53 L179.99,170.48 L178.5,172.45 L176.94,174.42 L175.33,176.41 L173.66,178.41 L171.93,180.44 L170.14,182.48 L168.3,184.55 L166.4,186.64 L164.45,188.76 L162.44,190.92 L160.39,193.1 L158.27,195.32 L156.11,197.57 L153.89,199.86 L151.63,202.19 L149.31,204.57 L146.94,206.99 L144.53,209.46 L144.24,209.74 L144.21,209.77 L144.18,209.81 L144.14,209.85 L144.09,209.89 L144.04,209.94 L143.99,209.99 L143.93,210.05 L143.87,210.12 L143.8,210.18 L143.73,210.25 L143.66,210.33 L143.58,210.41 L143.5,210.49 L143.41,210.58 L143.33,210.67 L143.24,210.76 L143.14,210.86 L143.05,210.96 L142.95,211.06 L142.85,211.16 L142.75,211.27 L142.64,211.37 L142.53,211.48 L142.43,211.6 L142.32,211.71 L142.21,211.82 L142.09,211.94 L141.98,212.06 L141.86,212.18 L141.75,212.3 L141.63,212.42 L141.52,212.54 L141.4,212.66 L141.28,212.78 L141.17,212.9 L141.05,213.02 L140.93,213.14 L140.82,213.26 L140.7,213.38 L140.59,213.5 L138.95,215.18 L137.37,216.85 L135.84,218.5 L134.36,220.15 L132.93,221.78 L131.55,223.4 L130.22,225.02 L128.94,226.63 L127.71,228.23 L126.53,229.83 L125.4,231.43 L124.31,233.03 L123.27,234.63 L122.28,236.23 L121.33,237.83 L120.42,239.44 L119.56,241.06 L118.75,242.68 L117.97,244.31 L117.24,245.95 L116.55,247.61 L115.9,249.28 L115.29,250.96 L114.72,252.66 L114.19,254.38 L113.7,256.11 L113.25,257.87 L112.83,259.65 L112.45,261.45 L112.11,263.27 L111.8,265.13 L111.53,267.01 L111.29,268.91 L111.08,270.85 L110.91,272.82 L110.77,274.83 L110.67,276.87 L110.59,278.94 L110.55,281.05 L110.53,283.2 L110.53,298.2 L146.33,298.2 L146.48,295.63 L146.67,293.12 L146.91,290.66 L147.2,288.27 L147.54,285.92 L147.93,283.62 L148.37,281.37 L148.85,279.17 L149.39,277 L149.97,274.88 L150.61,272.79 L151.3,270.73 L152.04,268.71 L152.83,266.71 L153.67,264.74 L154.57,262.79 L155.52,260.86 L156.52,258.94 L157.58,257.04 L158.69,255.15 L159.85,253.28 L161.07,251.4 L162.34,249.53 L163.67,247.67 L165.05,245.79 L166.49,243.92 L167.99,242.04 L169.54,240.14 L171.15,238.24 L172.82,236.32 L174.55,234.38 L176.33,232.42 L178.17,230.43 L180.08,228.42 L182.04,226.38 L184.06,224.31 L186.14,222.2 L188.28,220.06 L190.48,217.88 L192.74,215.65 L195.59,212.84 L198.34,210.09 L200.98,207.4 L203.53,204.76 L205.98,202.18 L208.34,199.66 L210.6,197.18 L212.77,194.74 L214.85,192.35 L216.84,190 L218.74,187.69 L220.56,185.41 L222.29,183.17 L223.94,180.95 L225.5,178.76 L226.99,176.6 L228.4,174.45 L229.73,172.32 L230.98,170.21 L232.16,168.11 L233.27,166.02 L234.31,163.94 L235.28,161.86 L236.18,159.78 L237.01,157.7 L237.78,155.62 L238.49,153.53 L239.13,151.43 L239.71,149.31 L240.24,147.18 L240.71,145.04 L241.12,142.87 L241.48,140.67 L241.78,138.45 L242.03,136.21 L242.24,133.92 L242.39,131.61 L242.5,129.25 L242.57,126.86 L242.59,124.42 L242.53,120.83 L242.35,117.24 L242.04,113.64 L241.61,110.05 L241.06,106.46 L240.38,102.88 L239.58,99.32 L238.65,95.79 L237.6,92.28 L236.42,88.8 L235.11,85.36 L233.67,81.97 L232.11,78.62 L230.41,75.32 L228.59,72.09 L226.64,68.92 L224.55,65.81 L222.33,62.78 L219.98,59.84 L217.5,56.97 L214.89,54.19 L212.14,51.51 L209.26,48.93 L206.24,46.46 L203.08,44.09 L199.79,41.84 L196.36,39.71 L192.8,37.7 L189.1,35.83 L185.25,34.09 L181.27,32.49 L177.15,31.04 L172.89,29.74 L168.49,28.6 L163.94,27.62 L159.26,26.8 L154.43,26.16 L149.45,25.7 L144.34,25.41 L139.07,25.32 L137.17,25.33 L135.2,25.37 Z" id="jdVYtsuz"></path>
                    </g>
                </g>
            </g>
        </g>
    </g>
</svg>