<?xml version="1.0" encoding="UTF-8"?>
<svg width="66px" height="62px" viewBox="0 0 66 62" version="1.1" xmlns="http://www.w3.org/2000/svg" xmlns:xlink="http://www.w3.org/1999/xlink">
    <!-- Generator: Sketch 55.2 (78181) - https://sketchapp.com -->
    <title>Shape</title>
    <desc>Created with Sketch.</desc>
    <g id="Page-1" stroke="none" stroke-width="1" fill="none" fill-rule="evenodd">
        <g id="noun_work-table_1683585" fill="#000000">
            <path d="M5,36 L5,61 C5,61.552285 4.552285,62 4,62 C3.447715,62 3,61.552285 3,61 L3,36 L1,36 C0.447715,36 0,35.552285 0,35 L0,27 C0,26.447715 0.447715,26 1,26 L20,26 L20,19 L8,19 C7.447715,19 7,18.552285 7,18 L7,1 C7,0.447715 7.447715,0 8,0 L34,0 C34.552285,0 35,0.447715 35,1 L35,18 C35,18.552285 34.552285,19 34,19 L22,19 L22,26 L47.526651,26 C46.57727,24.939595 46,23.539663 46,22.004971 L46,13 C46,12.447715 46.447715,12 47,12 L58,12 C58.552285,12 59,12.447715 59,13 L59,14 L63,14 C63.552285,14 64,14.447715 64,15 L64,20.491084 C64,21.043368 63.552285,21.491084 63,21.491084 C62.447715,21.491084 62,21.043368 62,20.491084 L62,16 L59,16 L59,22.004971 C59,23.540149 58.423193,24.939856 57.474317,26 L65,26 C65.552285,26 66,26.447715 66,27 L66,35 C66,35.552285 65.552285,36 65,36 L63,36 L63,61 C63,61.552285 62.552285,62 62,62 C61.447715,62 61,61.552285 61,61 L61,56 L38,56 C37.447715,56 37,55.552285 37,55 L37,36 L5,36 Z M39,46 L39,54 L61,54 L61,46 L39,46 Z M39,44 L61,44 L61,36 L39,36 L39,44 Z M48,22.004971 C48,24.211016 49.791209,26 52.001099,26 L52.998901,26 C55.209872,26 57,24.212669 57,22.004971 L57,14 L48,14 L48,22.004971 Z M33,17 L33,2 L9,2 L9,17 L33,17 Z M2,34 L64,34 L64,28 L2,28 L2,34 Z" id="Shape"></path>
        </g>
    </g>
</svg>